<svg width="150" height="150" viewBox="0 0 150 150" fill="none" xmlns="http://www.w3.org/2000/svg">
<circle cx="75" cy="75" r="75" fill="#F0F0F0"/>
<path d="M42.7212 70.7446C46.0122 66.1446 50.9442 64.0596 50.9442 64.0596C51.1052 63.9926 50.4192 57.6906 50.4052 57.2436C50.1972 49.8816 51.4182 42.2216 56.9522 36.9056C63.8702 30.2646 76.4222 28.8886 84.3582 34.4836C84.2582 34.4096 86.9692 32.2726 87.1982 32.1356C88.6794 31.2417 90.3507 30.7103 92.0762 30.5846C99.0202 30.0846 105.388 35.5406 107.993 42.1406C110.598 48.7406 110 63.7786 105.221 68.1156" stroke="#DFDAF1" stroke-width="0.4646" stroke-miterlimit="10"/>
<path d="M39.7537 78.7246C39.9248 76.9129 40.3906 75.1412 41.1327 73.4796C41.2034 73.3216 41.2774 73.1669 41.3547 73.0156" stroke="#DFDAF1" stroke-width="0.4646" stroke-miterlimit="10"/>
<path d="M48.3362 97.8692C47.5362 97.1422 46.7952 96.4022 46.1162 95.6582" stroke="#DFDAF1" stroke-width="0.4646" stroke-miterlimit="10"/>
<path d="M115 76.2478C115.006 76.7478 115 77.2578 114.976 77.7688C114.834 80.9298 114.157 84.1968 112.465 86.8588C112.157 87.35 111.813 87.8179 111.437 88.2588C107.837 87.7838 107.3 84.1118 103.137 82.0358C98.1497 79.5428 89.9837 80.4358 89.9837 80.4358L94.0067 76.7248C93.7917 65.5488 85.5867 66.2348 85.5867 66.2348L85.1697 67.2558C85.4864 66.3311 85.8067 65.4688 86.1307 64.6688L86.1487 64.6268C89.9487 55.1888 93.8857 54.0188 96.9487 52.6558C97.6804 52.482 98.4297 52.3927 99.1817 52.3898C107.013 52.3478 111.609 60.3228 113.619 66.7428C114.119 68.3428 114.888 71.7648 114.991 75.6128C114.993 75.8188 115 76.0338 115 76.2478Z" fill="#2E2E2E"/>
<path d="M119.4 118.135C118.792 118.972 117.789 119.428 116.755 119.428H104.875C104.419 119.435 103.966 119.346 103.546 119.167C103.126 118.988 102.748 118.723 102.436 118.389C102.43 118.389 102.436 118.389 102.436 118.389C102.394 118.347 102.354 118.301 102.318 118.253C101.946 117.792 101.713 117.234 101.647 116.645C101.587 116.104 101.989 115.623 102.533 115.645C102.739 115.653 102.935 115.736 103.085 115.877C103.235 116.019 103.329 116.21 103.349 116.415C103.349 116.458 103.358 116.5 103.364 116.542C103.408 116.786 103.515 117.015 103.675 117.204C103.816 117.371 103.994 117.504 104.194 117.593C104.394 117.681 104.611 117.723 104.83 117.715H116.806C117.02 117.719 117.233 117.676 117.429 117.59C117.626 117.504 117.801 117.376 117.943 117.215C118.103 117.03 118.213 116.806 118.26 116.565C118.308 116.325 118.292 116.076 118.215 115.843L112.866 99.9385C112.822 99.8165 112.771 99.6975 112.711 99.5825C112.397 98.9192 111.899 98.3599 111.277 97.971C110.655 97.5821 109.934 97.3799 109.2 97.3885C106.948 97.4155 104.089 97.4215 103.82 97.4215C97.8271 97.3995 95.1001 97.3995 93.6001 97.4395C93.703 97.0709 93.8891 96.7308 94.1441 96.4455C94.1441 96.4455 94.1501 96.4395 94.1501 96.4365C94.5159 96.0466 95.0166 95.8109 95.5501 95.7775C97.7721 95.5955 99.9721 95.2635 102.109 94.6835C105.88 93.6615 109.477 91.9085 111.976 89.0895C113.192 87.7249 114.112 86.1223 114.676 84.3835C115.114 83.0028 115.39 81.5759 115.498 80.1315C115.537 79.6755 115.561 79.2161 115.57 78.7535V78.7325C115.57 78.6265 115.576 78.5175 115.576 78.4115C115.59 77.7525 115.56 77.0934 115.486 76.4385C116.139 76.4436 116.765 76.7025 117.23 77.1605C117.271 77.2682 117.301 77.3798 117.32 77.4935C117.338 77.6012 117.347 77.7102 117.347 77.8195V90.7545C117.348 91.638 117.174 92.5129 116.834 93.3284C116.494 94.144 115.996 94.884 115.368 95.5055C114.328 96.5355 114.032 98.0985 114.525 99.4735L119.841 115.291C120.002 115.766 120.045 116.272 119.969 116.767C119.892 117.262 119.697 117.732 119.4 118.135Z" fill="#443586"/>
<path d="M46.1167 117.737V81.4736H48.3357V117.752L46.1167 117.737Z" fill="#2E2E2E"/>
<path d="M89.9856 80.4308C91.5746 80.2618 93.4126 80.0618 95.1776 80.1018" stroke="black" stroke-width="0.4646" stroke-miterlimit="10"/>
<path d="M81.3296 82.0332C78.5156 82.7432 75.7776 83.7682 73.4416 85.4722C69.5216 88.3282 67.7295 93.6562 69.3315 98.2722C69.3315 98.2782 75.6316 116.451 75.6316 116.451H73.9735C73.6161 116.451 73.2624 116.522 72.9325 116.659C72.6027 116.796 72.3031 116.998 72.0515 117.251C71.5585 117.741 71.3155 118.558 71.3155 119.308H86.2386L80.5676 100.758C80.4261 100.301 80.3943 99.8168 80.4747 99.345C80.5551 98.8732 80.7455 98.4269 81.0304 98.0423C81.3153 97.6577 81.6867 97.3456 82.1146 97.1312C82.5425 96.9168 83.0149 96.8061 83.4936 96.8082C86.7246 96.8992 89.7256 97.0232 92.9936 96.8812" stroke="black" stroke-width="0.4646" stroke-miterlimit="10"/>
<path d="M115.023 77.9199V77.8999C114.878 73.9999 114.682 70.1519 113.615 66.7399C111.605 60.3199 107.009 52.3449 99.1781 52.3869C98.426 52.3898 97.6768 52.4791 96.9451 52.6529C91.7831 53.8799 88.1981 59.1689 86.1451 64.6239L86.1271 64.6659C85.9311 65.1892 85.7497 65.7112 85.5831 66.2319C85.4701 66.5823 85.3307 66.9236 85.1661 67.2529C84.5372 68.5202 83.5403 69.5682 82.3059 70.2596C81.0716 70.951 79.6573 71.2536 78.2481 71.1279C68.7681 70.2659 56.2741 69.7739 52.3391 76.4349" stroke="black" stroke-width="0.4646" stroke-miterlimit="10"/>
<path d="M99.5101 70.666C98.1301 72.332 96.6771 73.941 95.1751 75.497C92.1001 78.685 89.4471 82.071 84.6751 82.297C80.8681 82.48 77.2441 81.019 73.6441 80.006C69.7931 78.923 67.8441 78.057 64.2551 76.963C63.2214 76.6492 62.1491 76.4809 61.0691 76.463L57.4561 76.491" stroke="black" stroke-width="0.4646" stroke-miterlimit="10"/>
<path d="M85.4179 116.685C85.7619 116.531 86.1349 116.452 86.5119 116.453H88.1739C88.1739 116.453 84.6999 109.7 81.9219 105.205" stroke="black" stroke-width="0.4646" stroke-miterlimit="10"/>
<path d="M87.7 96.8965L99.32 119.429H86.176H83.792" stroke="black" stroke-width="0.4646" stroke-miterlimit="10"/>
<path d="M119.4 118.136C118.792 118.973 117.789 119.429 116.755 119.429H104.875C103.89 119.429 102.929 119.021 102.315 118.251C101.943 117.79 101.71 117.232 101.644 116.643C101.584 116.102 101.986 115.621 102.53 115.643C102.736 115.651 102.933 115.734 103.083 115.875C103.233 116.017 103.326 116.208 103.346 116.413C103.37 116.704 103.484 116.98 103.672 117.202C103.816 117.367 103.993 117.498 104.193 117.586C104.392 117.674 104.609 117.718 104.827 117.713H116.806C117.021 117.717 117.233 117.674 117.429 117.588C117.626 117.502 117.801 117.374 117.943 117.213C118.103 117.028 118.213 116.804 118.26 116.563C118.308 116.323 118.293 116.074 118.215 115.841L112.866 99.9395C112.595 99.1865 112.097 98.5365 111.44 98.0796C110.783 97.6227 110 97.3815 109.2 97.3895C106.948 97.4165 104.089 97.4225 103.82 97.4225C97.1471 97.4015 94.5201 97.4015 93.1281 97.4525C93.1064 97.4523 93.085 97.4479 93.065 97.4395C93.045 97.4311 93.0269 97.4188 93.0117 97.4034C92.9965 97.388 92.9844 97.3698 92.9763 97.3497C92.9681 97.3296 92.9639 97.3081 92.9641 97.2865C92.9621 96.6691 93.1886 96.0728 93.6001 95.6125C93.6017 95.6113 93.6031 95.6098 93.6041 95.6081C93.6051 95.6064 93.6058 95.6045 93.6061 95.6025C93.9724 95.2135 94.4728 94.9783 95.0061 94.9445C97.2281 94.7625 99.4281 94.4305 101.565 93.8505C105.336 92.8285 108.933 91.0755 111.432 88.2565C112.649 86.8919 113.568 85.2893 114.132 83.5505C114.569 82.1703 114.844 80.7441 114.951 79.3005C114.99 78.8431 115.014 78.3838 115.023 77.9225V77.9005C115.023 77.7955 115.029 77.6865 115.029 77.5805C115.043 76.9215 115.013 76.2624 114.939 75.6075C116.027 75.6015 117.124 76.3925 117.314 77.4965C117.332 77.6042 117.341 77.7132 117.341 77.8225V90.7555C117.342 91.639 117.168 92.5139 116.828 93.3294C116.488 94.145 115.99 94.885 115.362 95.5065C114.322 96.5365 114.026 98.0995 114.519 99.4745L119.835 115.292C119.997 115.767 120.041 116.273 119.966 116.768C119.89 117.263 119.696 117.732 119.4 118.136Z" stroke="black" stroke-width="0.4646" stroke-miterlimit="10"/>
<path d="M62.324 78.7256H31.373C30.6147 78.7256 30 79.3403 30 80.0986V80.0996C30 80.8579 30.6147 81.4726 31.373 81.4726H62.324C63.0823 81.4726 63.697 80.8579 63.697 80.0996V80.0986C63.697 79.3403 63.0823 78.7256 62.324 78.7256Z" stroke="black" stroke-width="0.4646" stroke-miterlimit="10"/>
<path d="M53.5589 117.909H41.0439C40.6192 117.909 40.2749 118.253 40.2749 118.678C40.2749 119.103 40.6192 119.447 41.0439 119.447H53.5589C53.9836 119.447 54.3279 119.103 54.3279 118.678C54.3279 118.253 53.9836 117.909 53.5589 117.909Z" stroke="black" stroke-width="0.4646" stroke-miterlimit="10"/>
<path d="M44.3853 77.4934V77.6314C44.4053 78.5804 45.2983 78.7254 46.0683 78.7314L60.9543 78.7214C61.6063 78.7214 62.1443 78.2214 62.1453 77.6074V77.5814C62.1333 76.9814 61.6093 76.4924 60.9653 76.4914C60.9653 76.4914 52.6373 76.4614 46.1873 76.4424C46.0713 76.7804 45.7773 77.0424 45.4103 77.2564C45.0946 77.4219 44.7417 77.5035 44.3853 77.4934Z" stroke="black" stroke-width="0.4646" stroke-miterlimit="10"/>
<path d="M36.2003 64.1234C36.2034 64.2814 36.2486 64.4357 36.3313 64.5704L43.2313 76.1594C43.3206 76.2987 43.4377 76.4181 43.5754 76.51C43.7131 76.6019 43.8683 76.6643 44.0313 76.6934C44.307 76.7477 44.5927 76.7167 44.8503 76.6044C45.2733 76.4164 45.5173 76.0374 45.5093 75.6534C45.5078 75.6051 45.5027 75.5569 45.4943 75.5094C45.473 75.4035 45.4338 75.302 45.3783 75.2094L38.4783 63.6204C38.1783 63.1134 37.4443 62.9144 36.8543 63.1754C36.4333 63.3594 36.1893 63.7384 36.2003 64.1234Z" stroke="black" stroke-width="0.4646" stroke-miterlimit="10"/>
<path d="M54.8574 76.4913C54.8574 76.4913 55.6884 75.7003 57.5994 74.4443" stroke="black" stroke-width="0.4646" stroke-miterlimit="10"/>
<path d="M61.6342 63.4912L58.6052 66.8502C58.3943 67.0842 58.1015 67.2283 57.7874 67.2527C57.4732 67.2771 57.1617 67.1799 56.9172 66.9812C56.7821 66.8715 56.6719 66.7345 56.5937 66.5791C56.5155 66.4237 56.4711 66.2535 56.4636 66.0797C56.456 65.9059 56.4854 65.7324 56.5498 65.5708C56.6142 65.4092 56.7122 65.2631 56.8372 65.1422L57.3912 64.6062C57.4122 64.5762 57.4362 64.5492 57.4602 64.5212L57.8602 64.0802L61.3002 60.3422C61.7177 59.8833 62.2435 59.5364 62.8295 59.3331C63.4156 59.1297 64.0433 59.0765 64.6552 59.1782L64.7062 59.1872" stroke="black" stroke-width="0.4646" stroke-miterlimit="10"/>
<path d="M65.8998 64.3998H62.8698C62.525 64.3998 62.1944 64.2628 61.9506 64.019C61.7068 63.7752 61.5698 63.4446 61.5698 63.0998C61.5698 62.755 61.7068 62.4244 61.9506 62.1806C62.1944 61.9368 62.525 61.7998 62.8698 61.7998H67.1698" stroke="black" stroke-width="0.4646" stroke-miterlimit="10"/>
<path d="M63.5771 64.4004C63.5351 64.9314 63.3321 65.3244 63.0331 65.6004C62.2631 66.3004 60.8511 66.2234 59.8691 65.7424" stroke="black" stroke-width="0.4646" stroke-miterlimit="10"/>
<path d="M57.865 64.078C56.994 63.029 57.173 61.603 57.85 60.5C60.645 55.936 65.973 58.747 69.476 60.714C71.5613 61.8905 73.5546 63.223 75.439 64.7C77.107 66 78.651 67.556 80.655 68.338C81.855 68.807 83.272 68.919 84.466 68.378" stroke="black" stroke-width="0.4646" stroke-miterlimit="10"/>
<path d="M63.033 65.5918C65.1467 67.1519 67.165 68.8373 69.077 70.6388" stroke="black" stroke-width="0.4646" stroke-miterlimit="10"/>
<path d="M88.751 41.0577C89.257 41.5197 90.034 41.5447 90.677 41.4827C91.499 41.4077 92.313 41.2087 93.118 41.0407L93.607 41.0157H93.614C93.7077 41.0167 93.8004 41.036 93.8867 41.0728C93.9729 41.1095 94.0511 41.1629 94.1168 41.2298C94.1824 41.2968 94.2343 41.376 94.2693 41.463C94.3043 41.5498 94.3219 41.643 94.321 41.7366C94.3321 42.7921 94.2268 43.8455 94.007 44.8777L94.944 45.3847C95.065 45.0467 94.929 44.5597 95.216 44.5227C95.4 44.1797 95.674 43.9567 96.104 44.2117C96.946 44.7117 97.278 46.1806 96.467 46.8537L96.987 47.8257C97.1682 48.1665 97.4621 48.4337 97.8185 48.5818C98.1749 48.7299 98.5716 48.7497 98.941 48.6377L98.41 47.4637C99.656 47.6847 100.528 46.1297 100.148 45.1807C99.889 44.5287 99.902 44.0217 100.248 43.3877C100.271 43.3447 100.036 43.2877 100.056 43.2437C100.068 42.7787 99.939 42.2807 99.715 42.0437C99.321 41.6197 98.528 41.5437 98.69 40.8997C98.7619 40.6195 98.7886 40.3295 98.769 40.0407C98.7267 39.6632 98.604 39.2991 98.4093 38.973C98.2145 38.6468 97.9522 38.3661 97.64 38.1497C96.984 37.7187 96.25 38.1097 95.549 38.0987C94.698 38.0897 94.088 37.3677 93.196 37.3567C92.752 37.3497 92.396 37.5227 92.016 37.7377C91.698 37.9207 91.385 38.1117 91.081 38.3187C90.777 38.5257 90.507 38.7047 90.144 38.7057C89.671 38.7117 89.214 38.4117 88.738 38.5517C88.4973 38.6165 88.2857 38.761 88.138 38.9617C87.987 39.6997 88.26 40.6127 88.751 41.0577Z" fill="#443586"/>
<path d="M94.9478 45.2747C95.0089 45.0142 95.0988 44.7613 95.2158 44.5207C95.3998 44.1777 95.6748 43.9547 96.1038 44.2097C96.9458 44.7097 97.2778 46.1787 96.4668 46.8517L96.9868 47.8237C97.1681 48.1644 97.462 48.4317 97.8184 48.5798C98.1748 48.7279 98.5715 48.7476 98.9408 48.6357" stroke="black" stroke-width="0.4646" stroke-linecap="round" stroke-linejoin="round"/>
<path d="M98.4104 47.4619L98.9394 48.6379C99.0724 48.9189 99.4534 49.7829 99.8524 50.6809C100.136 51.3239 100.432 51.9859 100.652 52.4729" stroke="black" stroke-width="0.4646" stroke-linecap="round" stroke-linejoin="round"/>
<path d="M89.8408 43.2387C89.8408 43.2387 91.3998 42.8507 92.0808 44.0327" stroke="black" stroke-width="0.4646" stroke-miterlimit="10"/>
<path d="M90.2997 46.7685C89.8797 46.8835 89.3147 46.9865 88.9907 46.6205L89.6967 45.1345C89.8681 44.7701 89.9105 44.3582 89.8167 43.9665C89.6627 43.3075 89.2777 42.3065 89.6907 41.4375" stroke="black" stroke-width="0.4646" stroke-miterlimit="10"/>
<path d="M91.3492 44.7764C91.4675 44.5801 91.3763 44.3082 91.1455 44.1691C90.9146 44.03 90.6316 44.0763 90.5133 44.2726C90.3949 44.4689 90.4861 44.7408 90.717 44.8799C90.9478 45.0191 91.2308 44.9727 91.3492 44.7764Z" fill="black"/>
<path d="M93.6242 54.1324L93.2542 50.0264" stroke="black" stroke-width="0.4646" stroke-miterlimit="10"/>
<path d="M94.9436 45.3832C94.9436 45.3472 94.9436 45.3102 94.9436 45.2742C94.9456 45.2356 94.9456 45.1968 94.9436 45.1582" stroke="black" stroke-width="0.4646" stroke-linecap="round" stroke-linejoin="round"/>
<path d="M94.9451 45.384L94.6231 45.211L94.0071 44.876" stroke="black" stroke-width="0.4646" stroke-linecap="round" stroke-linejoin="round"/>
<path d="M92.3667 46.874C92.3667 46.874 92.3357 47.914 91.1467 48.342" stroke="black" stroke-width="0.4646" stroke-miterlimit="10"/>
<path d="M98.4102 47.4618C99.6562 47.6828 100.528 46.1278 100.148 45.1788C99.8892 44.5268 99.9022 44.0198 100.248 43.3858C100.271 43.3428 100.29 43.3008 100.31 43.2588C100.567 42.6918 100.476 42.1298 100.072 41.6478C99.6892 41.1918 99.1122 41.0318 99.2782 40.3668C99.3528 40.0781 99.3805 39.7793 99.3602 39.4818C99.3171 39.0935 99.1913 38.719 98.9912 38.3835C98.791 38.048 98.5212 37.7593 98.2001 37.5368C97.5261 37.0898 96.7672 37.4948 96.0412 37.4838C95.1672 37.4708 94.5361 36.7268 93.6192 36.7158C93.1602 36.7158 92.7902 36.8868 92.4002 37.1088C92.0722 37.2978 91.7471 37.4968 91.4372 37.7088C91.1272 37.9208 90.8372 38.1088 90.4692 38.1088C89.9812 38.1088 89.5102 37.8088 89.0222 37.9488C88.5342 38.0888 88.2442 38.4928 88.1482 38.9608C87.9922 39.6948 88.2652 40.6118 88.7562 41.0608C89.2622 41.5228 90.0392 41.5478 90.6822 41.4858C91.5042 41.4108 92.3182 41.2118 93.1232 41.0438L93.6121 41.0188H93.6192C93.713 41.0197 93.8056 41.0391 93.8918 41.0758C93.9781 41.1126 94.0564 41.1659 94.122 41.2329C94.1877 41.2998 94.2395 41.3791 94.2746 41.466C94.3096 41.553 94.3271 41.646 94.3262 41.7398C94.3374 42.7952 94.232 43.8485 94.0121 44.8808" stroke="black" stroke-width="0.4646" stroke-miterlimit="10"/>
<path d="M95.1332 48.6002C95.1332 48.6002 93.2752 51.0682 91.6242 50.5152C89.9732 49.9622 89.8892 46.9072 89.8892 46.9072" stroke="black" stroke-width="0.4646" stroke-linecap="round" stroke-linejoin="round"/>
<path d="M46.1167 117.737V81.4736H48.3357V117.752" stroke="black" stroke-width="0.4646" stroke-miterlimit="10"/>
<path d="M48.1591 60.373C50.1373 60.373 51.7411 58.7693 51.7411 56.791C51.7411 54.8127 50.1373 53.209 48.1591 53.209C46.1808 53.209 44.5771 54.8127 44.5771 56.791C44.5771 58.7693 46.1808 60.373 48.1591 60.373Z" fill="#443586"/>
<path d="M46.7578 57.7154C46.653 57.6438 46.5599 57.5564 46.4818 57.4564C46.3435 57.2852 46.2728 57.0693 46.2829 56.8495C46.293 56.6297 46.3833 56.4212 46.5368 56.2634C46.6369 56.1604 46.7595 56.0819 46.895 56.0342C47.0305 55.9865 47.1752 55.9708 47.3178 55.9884C47.2862 55.7901 47.32 55.5868 47.4142 55.4094C47.5083 55.232 47.6576 55.09 47.8396 55.005C48.0215 54.92 48.2262 54.8964 48.4227 54.938C48.6192 54.9796 48.7969 55.084 48.9288 55.2354C49.2078 55.5514 49.3388 56.0214 49.3878 56.4354C49.4131 56.6515 49.4165 56.8697 49.3978 57.0864C49.3888 57.1954 49.3498 57.8244 49.2478 57.8644C48.5738 58.1224 47.4248 58.1784 46.7578 57.7154Z" fill="white"/>
<path d="M73.432 59.5285C74.4924 59.5285 75.352 58.6689 75.352 57.6085C75.352 56.5481 74.4924 55.6885 73.432 55.6885C72.3716 55.6885 71.512 56.5481 71.512 57.6085C71.512 58.6689 72.3716 59.5285 73.432 59.5285Z" fill="#443586"/>
<path d="M73.3002 56.7183C73.3586 56.683 73.4225 56.6577 73.4892 56.6433C73.6039 56.6157 73.7247 56.631 73.8289 56.6862C73.9331 56.7415 74.0136 56.8329 74.0552 56.9433C74.0822 57.0154 74.0923 57.0929 74.0845 57.1696C74.0767 57.2462 74.0512 57.3201 74.0102 57.3853C74.1113 57.4174 74.1996 57.4809 74.2623 57.5666C74.3249 57.6523 74.3587 57.7556 74.3587 57.8618C74.3587 57.9679 74.3249 58.0713 74.2623 58.157C74.1996 58.2426 74.1113 58.3061 74.0102 58.3383C73.7812 58.3884 73.5425 58.371 73.3232 58.2883C73.2126 58.251 73.1061 58.2028 73.0052 58.1443C72.9542 58.1153 72.6572 57.9533 72.6622 57.8943C72.6912 57.5063 72.9262 56.9363 73.3002 56.7183Z" fill="white"/>
<path d="M58.5451 55.4175C58.7603 55.5971 59.0004 55.7443 59.2581 55.8545C59.7325 56.0525 60.2502 56.1239 60.7605 56.0617C61.2708 55.9995 61.7561 55.8057 62.1691 55.4995C62.4891 55.2555 62.7691 54.9185 63.1001 54.6735C63.331 54.4925 63.6083 54.3803 63.9001 54.3495C63.9971 54.3522 64.0933 54.332 64.1811 54.2905C64.4031 54.1525 64.1411 53.9235 64.1181 53.7615C64.0872 53.5024 64.1523 53.241 64.3011 53.0265C64.6809 52.4601 64.8531 51.7797 64.7885 51.1007C64.7239 50.4218 64.4264 49.7861 63.9465 49.3015C63.4666 48.8169 62.8338 48.5132 62.1555 48.4419C61.4773 48.3707 60.7952 48.5362 60.2251 48.9105C59.6621 49.2795 59.2441 49.8265 58.8201 50.3495C58.4461 50.8105 58.0551 51.2645 57.7811 51.7915C57.1371 53.0305 57.5131 54.5565 58.5451 55.4175Z" fill="#443586"/>
<path d="M62.3639 51.3338C62.718 51.3338 63.0049 51.0468 63.0049 50.6928C63.0049 50.3387 62.718 50.0518 62.3639 50.0518C62.0099 50.0518 61.7229 50.3387 61.7229 50.6928C61.7229 51.0468 62.0099 51.3338 62.3639 51.3338Z" fill="white"/>
<path d="M61.1237 52.8504C61.4777 52.8504 61.7647 52.5634 61.7647 52.2094C61.7647 51.8554 61.4777 51.5684 61.1237 51.5684C60.7697 51.5684 60.4827 51.8554 60.4827 52.2094C60.4827 52.5634 60.7697 52.8504 61.1237 52.8504Z" fill="white"/>
<path d="M59.9613 54.2732C60.3153 54.2732 60.6023 53.9862 60.6023 53.6322C60.6023 53.2782 60.3153 52.9912 59.9613 52.9912C59.6073 52.9912 59.3203 53.2782 59.3203 53.6322C59.3203 53.9862 59.6073 54.2732 59.9613 54.2732Z" fill="white"/>
<g opacity="0.46">
<path opacity="0.46" d="M78.5004 47.6294C78.4503 47.8805 78.3448 48.1171 78.1915 48.3222C78.0382 48.5272 77.841 48.6954 77.6144 48.8144L72.2684 51.6544C72.0668 51.762 71.8459 51.8287 71.6184 51.8508C71.391 51.8728 71.1614 51.8497 70.9429 51.7828C70.7243 51.7159 70.5212 51.6066 70.345 51.461C70.1689 51.3154 70.0232 51.1364 69.9164 50.9344L65.6554 42.9114C65.4395 42.5045 65.3939 42.0286 65.5288 41.5881C65.6636 41.1477 65.9677 40.7787 66.3744 40.5624L71.7244 37.7234C72.5294 37.2954 73.6404 37.6234 74.0724 38.4424L78.3344 46.4624C78.5262 46.8195 78.585 47.233 78.5004 47.6294Z" fill="#443586"/>
</g>
<path d="M76.9136 47.0207L71.7006 45.0337C71.6342 45.0079 71.5791 44.9593 71.5452 44.8967C71.5113 44.834 71.5008 44.7613 71.5156 44.6917L72.7246 39.1307C72.7383 39.0715 72.7697 39.0179 72.8145 38.977C72.8593 38.936 72.9155 38.9096 72.9757 38.9013C73.0358 38.8929 73.097 38.903 73.1513 38.9302C73.2056 38.9574 73.2503 39.0005 73.2796 39.0537L77.2836 46.5997C77.3119 46.6534 77.3233 46.7145 77.3161 46.7748C77.309 46.8351 77.2837 46.8919 77.2435 46.9375C77.2034 46.9832 77.1504 47.0155 77.0915 47.0304C77.0326 47.0452 76.9706 47.0418 76.9136 47.0207Z" fill="white"/>
<g opacity="0.46">
<path opacity="0.46" d="M84.6998 53.2117C84.8092 53.2901 84.8996 53.3921 84.9643 53.5102C85.029 53.6282 85.0665 53.7593 85.0738 53.8937L85.2738 57.0727C85.2814 57.1927 85.2652 57.313 85.2263 57.4267C85.1873 57.5405 85.1262 57.6454 85.0466 57.7355C84.967 57.8256 84.8704 57.8991 84.7623 57.9518C84.6542 58.0045 84.5368 58.0354 84.4168 58.0427L79.6458 58.3367C79.404 58.3512 79.1663 58.2692 78.9849 58.1087C78.8034 57.9483 78.693 57.7224 78.6778 57.4807L78.4828 54.2997C78.4742 54.0595 78.5581 53.8252 78.7172 53.6451C78.8763 53.465 79.0984 53.3528 79.3378 53.3317L84.1078 53.0317C84.3202 53.0198 84.53 53.0836 84.6998 53.2117Z" fill="#443586"/>
</g>
<path d="M84.0661 53.8403L81.9781 55.9073C81.9516 55.9324 81.9171 55.9476 81.8806 55.9501C81.8442 55.9527 81.8079 55.9425 81.7781 55.9213L79.3781 54.1313C79.3525 54.112 79.3334 54.0853 79.3235 54.0548C79.3135 54.0243 79.3131 53.9914 79.3224 53.9607C79.3317 53.93 79.3501 53.9029 79.3753 53.8829C79.4004 53.863 79.4311 53.8513 79.4631 53.8493L83.9511 53.5723C83.9825 53.5715 84.0134 53.5801 84.0399 53.5971C84.0663 53.614 84.087 53.6385 84.0994 53.6674C84.1118 53.6962 84.1152 53.7281 84.1093 53.759C84.1034 53.7898 84.0883 53.8181 84.0661 53.8403Z" fill="white"/>
<g opacity="0.46">
<path opacity="0.46" d="M52.2997 70.6814C51.9866 70.7329 51.67 70.7597 51.3527 70.7614C48.3147 70.7614 48.4167 67.9444 48.4167 67.9444L50.9337 68.4884C50.8386 68.2554 50.8022 68.0026 50.8277 67.7522C50.8531 67.5018 50.9397 67.2615 51.0797 67.0524C51.6557 66.2104 52.9937 66.6434 52.9937 66.6434L53.8257 66.1074L53.6457 67.1074L54.7607 66.9194L54.1877 67.5824C54.9577 68.3224 55.9387 70.5754 53.5727 71.7464C51.2067 72.9174 50.1857 71.5144 50.1857 71.5144L51.3527 70.7624L52.2997 70.6814Z" fill="#443586"/>
</g>
<path d="M52.25 67.9262C52.4511 67.9262 52.614 67.7633 52.614 67.5622C52.614 67.3612 52.4511 67.1982 52.25 67.1982C52.049 67.1982 51.886 67.3612 51.886 67.5622C51.886 67.7633 52.049 67.9262 52.25 67.9262Z" fill="white"/>
<path d="M58.595 119.429H100.222" stroke="black" stroke-width="0.2898" stroke-miterlimit="10"/>
</svg>
