<svg width="150" height="150" viewBox="0 0 150 150" fill="none" xmlns="http://www.w3.org/2000/svg">
<circle cx="75" cy="75" r="75" fill="#F0F0F0"/>
<path d="M101.087 83.1448L100.912 84.8179C100.456 85.9076 100 86.9966 99.545 88.0849C99.386 88.467 99.2262 88.8486 99.0658 89.2294C98.993 89.4075 98.8899 89.5717 98.7609 89.7144C98.7546 89.724 98.746 89.7321 98.736 89.7379C98.7261 89.7438 98.715 89.7472 98.7035 89.7481C98.6649 89.7481 98.651 89.6966 98.648 89.658C98.6262 89.2454 98.5769 88.8346 98.5005 88.4284C98.0738 86.4672 95.7968 85.7485 94.0109 85.7931C93.2964 85.8039 92.5923 85.967 91.9457 86.2712C91.0132 86.7227 90.6498 87.978 90.6003 88.0245L90.5607 88.1859L89.9212 90.85C89.7865 91.444 89.6836 91.7578 89.1351 91.9162C89.1173 91.9221 88.5708 92.2132 88.553 92.2132C88.3411 92.2726 88.9213 92.1449 88.6916 92.1063L87.964 91.9924L87.6541 91.9212L83.1328 90.851C83.308 90.8807 83.4872 90.9133 83.6693 90.95L84.7187 91.2004L84.4415 89.8699C83.7198 85.7277 84.9157 81.9697 86.9532 79.9293C87.4897 79.3927 87.7561 79.2551 88.3817 78.8977L88.7332 79.7303C88.7332 79.7303 92.3289 80.8025 93.1763 77.5127C93.5188 77.5424 94.1772 77.5374 94.5168 77.6117C96.2869 77.9828 97.8855 78.9263 99.0658 80.2966C99.1698 80.4154 99.2717 80.5381 99.3727 80.6629L99.4262 80.7282C99.4885 80.8064 99.5549 80.8866 99.6172 80.9668L99.6618 81.0302C100.179 81.7056 100.655 82.4118 101.087 83.1448Z" fill="#353642"/>
<path d="M58.3632 65.8275C58.9334 62.9763 61.3549 60.2142 68.2711 59.5816C83.6438 58.1768 75.3337 53.9386 80.3392 49.3004C85.3446 44.6623 104.27 52.2932 99.3195 64.2108C94.3685 76.1284 110.712 62.901 117.634 77.9966C118.637 80.1871 119.12 82.5799 119.045 84.9879C118.958 87.5322 118.303 90.0249 117.128 92.2832C114.917 96.6016 110.81 100.449 104.871 102.833C103.995 103.19 103.077 103.511 102.119 103.796" stroke="#CCDDE2" stroke-width="0.44748" stroke-miterlimit="10"/>
<path d="M107.059 89.2761C106.94 90.6749 105.991 90.9026 105.991 90.9026C105.189 91.3768 103.958 90.867 103.709 89.978C103.706 89.9685 103.704 89.9585 103.703 89.9483C103.505 89.1869 103.119 88.2088 102.601 87.1386C101.601 84.7191 100.301 82.2797 98.6336 80.3502C97.4531 78.98 95.8546 78.0366 94.0845 77.6653C94.0786 77.6653 94.0756 77.6594 94.0697 77.6594C91.7224 76.9525 90.5799 75.5091 90.0849 74.1251C90.0849 74.1251 90.0849 74.1251 90.0849 74.1191C89.8731 73.245 89.6573 72.3926 89.7731 71.8768C89.9711 70.9729 90.0701 69.9958 89.8236 69.7978C89.5137 69.5384 88.9534 69.7305 87.5278 70.0176C86.2932 70.271 85.6349 70.1275 85.4864 69.3731C85.4629 69.2561 85.4509 69.137 85.4508 69.0177C85.4448 69.0929 85.1537 68.7939 85.1399 68.8652C85.0468 69.2503 84.8607 69.4048 84.4548 69.5741C83.8519 69.8245 83.6054 70.7918 83.5163 71.4362C83.4232 72.1223 83.7321 73.0688 83.9766 73.7132C83.6638 73.3559 83.3054 73.3974 82.7451 73.6142C82.6045 73.6677 82.2501 73.6529 81.9699 73.5549C82.0094 73.5209 82.0561 73.4961 82.1065 73.4826C82.1966 73.4529 81.5432 73.1282 81.6383 73.1074C82.5896 72.8925 83.1233 72.0996 83.0104 71.4016C82.7302 69.6444 83.1035 67.5772 84.2905 66.2081C85.5993 64.7023 87.7347 64.3894 89.5424 65.0785C90.9621 65.618 92.3045 66.7248 92.7966 68.2009C92.7966 68.2069 92.7966 68.2128 92.8025 68.2188C92.8651 68.4065 92.913 68.5988 92.946 68.7939C93.1272 69.8918 92.7401 71.0046 92.5253 72.0896C92.4481 72.4807 92.6441 72.9074 92.6857 73.2173C92.9243 75.0785 95.0726 75.6042 96.7724 76.3942C100.345 78.0584 103.263 80.9036 105.225 84.3637C106.528 86.6545 106.993 88.2168 107.059 89.2761Z" fill="#7765C4"/>
<path d="M88.2233 78.5283C88.1847 78.5491 88.1461 78.5699 88.1105 78.5937C87.4689 78.9614 86.8789 79.4129 86.3562 79.9361C84.3198 81.9765 83.1239 85.7345 83.8456 89.8767L84.1228 91.2003" stroke="black" stroke-width="0.44748" stroke-miterlimit="10"/>
<path d="M106.242 106.322C106.242 103.229 105.975 100.143 105.443 97.0969C105.087 95.0301 104.597 92.9887 103.975 90.9856C103.602 89.7689 103.146 88.4562 102.603 87.1385C102.099 85.9053 101.517 84.7057 100.861 83.5468C100.224 82.4119 99.4793 81.3414 98.6364 80.3501C97.4559 78.9799 95.8573 78.0363 94.0873 77.6652C93.7479 77.5932 93.4043 77.5416 93.0587 77.5107" stroke="black" stroke-width="0.44748" stroke-miterlimit="10"/>
<path d="M69.649 79.4098L69.5985 79.4009C68.9939 79.2996 68.3735 79.3517 67.7942 79.5523C67.215 79.753 66.6953 80.0958 66.283 80.5493L62.8972 84.2381L62.5012 84.6737C62.4765 84.7004 62.4534 84.7285 62.4319 84.7578" stroke="black" stroke-width="0.44748" stroke-miterlimit="10"/>
<path d="M64.7593 85.7214L66.6175 83.6602L66.6205 83.6572" stroke="black" stroke-width="0.44748" stroke-miterlimit="10"/>
<path d="M80.9238 96.3677L89.6645 99.4476C90.5062 99.7442 91.402 99.8562 92.2909 99.7757C93.1798 99.6952 94.0409 99.4244 94.8157 98.9813C95.5905 98.5384 96.2608 97.9337 96.7812 97.2086C97.3014 96.4834 97.6595 95.6547 97.831 94.7788L99.8991 84.2214C100.005 83.6793 100 83.1214 99.8845 82.5812C99.7692 82.0411 99.5459 81.5298 99.2279 81.0782C99.139 80.951 99.0425 80.8293 98.9388 80.7139" stroke="black" stroke-width="0.44748" stroke-miterlimit="10"/>
<path d="M75.1396 95.9416C74.0269 96.693 73.2091 98.975 72.7745 100.473C72.7001 100.724 72.5461 100.944 72.3358 101.101C72.1257 101.257 71.8703 101.341 71.6083 101.34C71.4309 101.34 71.2557 101.302 71.0945 101.227C70.8474 101.111 70.6465 100.915 70.5243 100.671C70.4022 100.427 70.3658 100.149 70.4213 99.8818C71.1489 96.3238 73.717 89.2997 82.5389 90.8481C82.7151 90.8778 82.8943 90.9105 83.0755 90.9471L84.1229 91.1995L87.0602 91.9153L87.8522 92.1064C88.1528 92.1792 88.4676 92.168 88.762 92.0737C88.7802 92.0701 88.7982 92.0652 88.8155 92.0589C89.0868 91.9658 89.3302 91.8058 89.5231 91.5935C89.7161 91.3814 89.8524 91.124 89.9193 90.8451L90.5876 88.0652L90.6262 87.9038L91.5014 84.2695" stroke="black" stroke-width="0.44748" stroke-miterlimit="10"/>
<path d="M70.8367 84.5506H67.843C67.5016 84.5506 67.1742 84.4149 66.9329 84.1736C66.6915 83.9322 66.556 83.6049 66.556 83.2636C66.556 82.9222 66.6915 82.5949 66.9329 82.3536C67.1742 82.1122 67.5016 81.9766 67.843 81.9766H72.0841" stroke="black" stroke-width="0.44748" stroke-miterlimit="10"/>
<path d="M68.5393 84.5488C68.4967 85.0735 68.2968 85.4616 68.0017 85.7299C67.2414 86.4229 65.8485 86.3437 64.8793 85.8695" stroke="black" stroke-width="0.44748" stroke-miterlimit="10"/>
<path d="M62.9011 84.2377C62.0428 83.2002 62.218 81.7934 62.8843 80.7064C64.7742 77.6216 69.0926 78.2136 71.8933 79.4956C74.1624 80.5312 76.1503 82.0875 78.0857 83.6398C79.0312 84.3981 79.9598 85.1881 80.8578 86.0158C81.0226 86.165 81.2192 86.2748 81.4325 86.337C81.646 86.3993 81.8707 86.4123 82.0899 86.3751C82.3091 86.338 82.517 86.2516 82.6981 86.1225C82.879 85.9934 83.0283 85.8249 83.1348 85.6297C83.6298 84.7159 84.1653 83.719 84.2663 83.4428" stroke="black" stroke-width="0.44748" stroke-miterlimit="10"/>
<path d="M68.0029 85.7305C68.0029 85.7305 72.4688 88.153 75.7863 91.6338" stroke="black" stroke-width="0.44748" stroke-miterlimit="10"/>
<path d="M74.049 97.2561C73.554 98.1016 73.9797 99.343 74.9153 99.64C76.11 100.026 77.3733 100.152 78.6209 100.011C79.9821 99.8529 80.887 98.7292 81.4829 97.4422C81.526 97.3465 81.5486 97.2427 81.549 97.1377C81.5494 97.0327 81.5277 96.9287 81.4853 96.8327C81.4429 96.7366 81.3808 96.6505 81.303 96.58C81.225 96.5095 81.1333 96.4562 81.0335 96.4235C80.8534 96.3642 80.6575 96.375 80.485 96.4537C80.3126 96.5324 80.176 96.6733 80.1029 96.8482C79.9049 97.3056 79.599 97.8778 79.1931 98.1352" stroke="black" stroke-width="0.44748" stroke-miterlimit="10"/>
<path d="M76.3808 97.0977C76.3808 97.0977 75.1582 98.4124 76.1224 99.8043C76.1648 99.8628 76.2147 99.9154 76.2709 99.9607" stroke="black" stroke-width="0.44748" stroke-miterlimit="10"/>
<path d="M77.9938 97.3145C77.9938 97.3145 76.8633 99.8588 78.3136 100.045" stroke="black" stroke-width="0.44748" stroke-miterlimit="10"/>
<path d="M118.133 106.323H48.1162" stroke="black" stroke-width="0.44748" stroke-miterlimit="10"/>
<path d="M75.6615 101.528H68.679C68.6081 102.188 68.2958 102.797 67.8022 103.24C67.3087 103.683 66.6689 103.927 66.006 103.926H42.537C42.5383 104.561 42.7911 105.169 43.2398 105.618C43.6887 106.067 44.2971 106.32 44.9319 106.321H75.6615C76.2972 106.321 76.907 106.069 77.3573 105.62C77.8077 105.171 78.0618 104.562 78.0642 103.926V102.316C78.0642 102.106 77.9807 101.905 77.8321 101.756C77.6836 101.608 77.4822 101.524 77.2722 101.524L75.6615 101.528Z" stroke="black" stroke-width="0.44748" stroke-miterlimit="10"/>
<path d="M64.8793 85.8696C65.085 86.1542 65.233 86.4765 65.3149 86.818L68.6225 100.613C68.6955 100.912 68.7146 101.222 68.6789 101.528C68.608 102.188 68.2958 102.797 67.8022 103.24C67.3087 103.683 66.6689 103.927 66.0059 103.926H42.1013C41.4976 103.926 40.9116 103.723 40.4376 103.349C39.9635 102.975 39.6293 102.452 39.4887 101.865L36.1871 88.0714C36.0921 87.6763 36.0881 87.2651 36.1751 86.8683C36.2621 86.4715 36.438 86.0997 36.6895 85.7807C36.941 85.4617 37.2615 85.2039 37.627 85.0268C37.9926 84.8496 38.3935 84.7576 38.7997 84.7578H62.7023C63.095 84.757 63.483 84.843 63.8386 85.0095C64.1942 85.176 64.5086 85.4189 64.7595 85.7211L64.8793 85.8696Z" stroke="black" stroke-width="0.44748" stroke-miterlimit="10"/>
<path d="M61.135 68.7026C60.9825 68.5234 60.8222 68.3512 60.6548 68.1839C59.716 67.2418 58.6003 66.4944 57.3718 65.9847C56.1433 65.475 54.8262 65.2131 53.4962 65.2139H40.9647C39.6351 65.2134 38.3183 65.4748 37.0897 65.9835C35.8612 66.4922 34.7449 67.2379 33.8047 68.1782C32.8645 69.1185 32.1188 70.2349 31.6103 71.4634C31.1018 72.6921 30.8404 74.0089 30.841 75.3386V75.4109C30.8397 76.3542 31.08 77.2824 31.539 78.1066C32.0547 78.6318 32.6703 79.0486 33.3495 79.3324C34.0288 79.6162 34.7579 79.7612 35.494 79.7589H47.7799C48.1548 79.7589 48.5145 79.9078 48.7796 80.173C49.0447 80.4381 49.1936 80.7978 49.1936 81.1727C49.1941 81.5481 49.3436 81.9078 49.6092 82.1732C49.8748 82.4384 50.2349 82.5874 50.6103 82.5874H50.641L53.6744 82.5102C53.6744 82.4805 53.6684 82.4537 53.6684 82.427C53.4062 82.3368 53.1787 82.167 53.0177 81.9412C52.8567 81.7154 52.7703 81.445 52.7705 81.1677V81.1024C52.7708 80.7275 52.9198 80.3681 53.1848 80.103C53.4499 79.838 53.8094 79.6889 54.1842 79.6887H57.175C58.6453 79.6887 60.0555 79.1046 61.0952 78.0649C62.1349 77.0252 62.719 75.615 62.719 74.1447C62.7241 72.2162 62.1743 70.327 61.135 68.7026ZM39.4342 74.5684C38.9547 74.5686 38.486 74.4265 38.0873 74.1603C37.6885 73.894 37.3778 73.5154 37.1942 73.0725C37.0108 72.6296 36.9628 72.1422 37.0563 71.6719C37.1499 71.2017 37.3807 70.7697 37.7199 70.4308C38.059 70.0918 38.491 69.8611 38.9613 69.7677C39.4315 69.6743 39.9189 69.7225 40.3618 69.9063C40.8047 70.09 41.1831 70.4009 41.4491 70.7997C41.7153 71.1986 41.8571 71.6674 41.8567 72.1468C41.8559 72.7889 41.6004 73.4046 41.1463 73.8585C40.6921 74.3126 40.0764 74.5678 39.4342 74.5684ZM47.3413 74.5684C46.862 74.5682 46.3934 74.4258 45.9949 74.1593C45.5966 73.8928 45.286 73.5141 45.1028 73.0711C44.9196 72.6282 44.8719 72.1408 44.9656 71.6706C45.0594 71.2006 45.2905 70.7689 45.6297 70.4301C45.9689 70.0913 46.4008 69.8607 46.8711 69.7676C47.3413 69.6743 47.8286 69.7227 48.2713 69.9065C48.7142 70.0902 49.0924 70.4012 49.3585 70.7999C49.6245 71.1987 49.7662 71.6675 49.7658 72.1468C49.7658 72.465 49.7031 72.7802 49.5812 73.0742C49.4593 73.3682 49.2807 73.6352 49.0555 73.8601C48.8304 74.0851 48.5631 74.2634 48.269 74.3848C47.9748 74.5064 47.6596 74.5688 47.3413 74.5684ZM54.8723 74.5684C54.3929 74.568 53.9245 74.4254 53.5262 74.1588C53.1279 73.8922 52.8175 73.5134 52.6345 73.0704C52.4514 72.6275 52.4038 72.1401 52.4976 71.6701C52.5916 71.2001 52.8228 70.7684 53.1619 70.4298C53.5012 70.0911 53.9331 69.8606 54.4034 69.7675C54.8735 69.6744 55.3608 69.7227 55.8036 69.9066C56.2462 70.0903 56.6245 70.4013 56.8905 70.8C57.1564 71.1988 57.2982 71.6675 57.2978 72.1468C57.2978 72.4651 57.235 72.7803 57.113 73.0744C56.9912 73.3685 56.8124 73.6356 56.5871 73.8605C56.3618 74.0855 56.0944 74.2637 55.8002 74.3851C55.506 74.5066 55.1906 74.5689 54.8723 74.5684Z" fill="#DFDAF1"/>
<path d="M62.7192 74.1452C62.7192 75.6155 62.1351 77.0257 61.0954 78.0654C60.0557 79.1051 58.6455 79.6892 57.1752 79.6892H54.1864C53.8117 79.6894 53.4524 79.8383 53.1874 80.1032C52.9224 80.368 52.7732 80.7272 52.7727 81.1019V81.1672C52.7725 81.4445 52.8589 81.7149 53.0199 81.9407C53.1808 82.1665 53.4083 82.3363 53.6706 82.4265C53.8087 82.4745 53.954 82.4986 54.1003 82.4978L53.6765 82.5097L50.6412 82.5869H50.6085C50.2333 82.5869 49.8734 82.438 49.6078 82.173C49.3422 81.908 49.1926 81.5484 49.1918 81.1732C49.1918 80.7982 49.0429 80.4386 48.7777 80.1735C48.5126 79.9084 48.153 79.7595 47.7781 79.7595H35.4942C34.0238 79.7595 32.6137 79.1754 31.574 78.1357C30.5343 77.096 29.9502 75.6858 29.9502 74.2155V74.1432C29.9503 72.8143 30.2122 71.4986 30.7208 70.2709C31.2295 69.0433 31.9749 67.9279 32.9146 66.9884C33.8543 66.0489 34.9699 65.3037 36.1976 64.7952C37.4253 64.2868 38.7412 64.0252 40.07 64.0254H52.5974C55.2814 64.0256 57.8555 65.0918 59.7537 66.9895C61.6517 68.8873 62.7184 71.4611 62.7192 74.1452Z" stroke="black" stroke-width="0.44748" stroke-miterlimit="10"/>
<path d="M94.0845 77.6613C94.0785 77.6613 94.0756 77.6554 94.0696 77.6554C91.7223 76.9485 90.5799 75.5051 90.0849 74.1211C90.0849 74.1211 90.0849 74.1211 90.0849 74.1151C89.6978 73.036 89.7067 71.9916 89.8463 71.3679C89.9299 71.0375 89.9829 70.7002 90.0047 70.36C90.0374 69.3968 89.3305 69.6324 87.3089 70.0353C86.3803 70.2234 85.7863 69.871 85.4893 69.37C85.4604 69.3264 85.4352 69.2804 85.4141 69.2324C85.2756 68.9409 85.218 68.6174 85.2477 68.2959" stroke="black" stroke-width="0.44748" stroke-miterlimit="10"/>
<path d="M84.0849 73.8445C84.0493 73.794 84.0127 73.7455 83.977 73.7069C83.6642 73.3495 83.3058 73.3911 82.7455 73.6079C82.6049 73.6613 82.2505 73.6465 81.9703 73.5485C81.7347 73.4643 81.5585 73.3188 81.6387 73.101C81.6593 73.0561 81.6898 73.0167 81.7282 72.9856C81.7665 72.9546 81.8113 72.9327 81.8594 72.9218C81.9528 72.8982 82.0472 72.8793 82.1426 72.8654C83.1039 72.6505 82.889 71.5378 82.7722 70.8398C82.4891 69.0836 82.8653 67.0164 84.0642 65.6473C85.3848 64.1415 87.545 63.8277 89.3696 64.5167C90.9744 65.1226 92.4841 66.4373 92.7969 68.1945C92.7969 68.2005 92.7969 68.2064 92.8029 68.2124C92.8088 68.2183 92.8029 68.2272 92.8029 68.2332C92.988 69.3311 92.8029 70.521 92.5881 71.6071C92.4594 72.2506 92.5079 72.7763 92.6871 73.2109C93.2484 74.6335 95.1423 75.1295 96.6688 75.8334C100.281 77.4976 103.225 80.3428 105.209 83.8029C106.775 86.5472 107.146 88.2351 107.06 89.2766C106.94 90.6755 105.992 90.9032 105.992 90.9032C105.19 91.3774 103.957 90.8675 103.71 89.9785C103.706 89.969 103.704 89.9589 103.704 89.9488C103.506 89.1875 103.12 88.2094 102.601 87.1392" stroke="black" stroke-width="0.44748" stroke-miterlimit="10"/>
<path d="M85.2431 68.2959C85.2431 68.8255 84.9936 69.3483 84.4511 69.571C83.8413 69.8225 83.5938 70.4848 83.5047 71.1293C83.3801 72.073 83.5832 73.0309 84.0799 73.8429C84.5402 74.6071 85.2897 75.4496 86.3509 75.4496C88.2953 75.4496 89.1289 74.5121 89.1289 74.5121" stroke="black" stroke-width="0.44748" stroke-miterlimit="10"/>
<path d="M87.2622 71.4338C87.4448 71.4338 87.5928 71.2858 87.5928 71.1031C87.5928 70.9206 87.4448 70.7725 87.2622 70.7725C87.0796 70.7725 86.9315 70.9206 86.9315 71.1031C86.9315 71.2858 87.0796 71.4338 87.2622 71.4338Z" fill="black"/>
<path d="M84.3536 71.6271C84.5363 71.6271 84.6843 71.4791 84.6843 71.2965C84.6843 71.1139 84.5363 70.9658 84.3536 70.9658C84.1711 70.9658 84.0229 71.1139 84.0229 71.2965C84.0229 71.4791 84.1711 71.6271 84.3536 71.6271Z" fill="black"/>
<path d="M85.7801 70.792C85.7801 70.792 85.6148 72.0978 85.6811 72.277C85.7474 72.4562 86.1613 72.2513 86.1613 72.2513" stroke="black" stroke-width="0.44748" stroke-miterlimit="10"/>
<path d="M86.3927 73.3944C87.1006 73.6547 87.8312 73.3231 88.045 72.6865" stroke="black" stroke-width="0.44748" stroke-miterlimit="10"/>
<path d="M88.9734 71.5807C89.4536 70.901 89.2784 69.9514 88.5822 69.4594C87.8861 68.9676 86.9324 69.1199 86.4523 69.7996C85.9721 70.4792 86.1472 71.4289 86.8434 71.9208C87.5397 72.4126 88.4933 72.2603 88.9734 71.5807Z" stroke="black" stroke-width="0.44748" stroke-miterlimit="10"/>
<path d="M85.1068 71.775C85.587 71.0953 85.4119 70.1456 84.7157 69.6538C84.0194 69.1619 83.0658 69.3142 82.5857 69.9939C82.1055 70.6736 82.2806 71.6233 82.9769 72.1151C83.673 72.6069 84.6266 72.4547 85.1068 71.775Z" stroke="black" stroke-width="0.44748" stroke-miterlimit="10"/>
<path d="M83.8193 69.8351C84.0942 69.8343 84.3593 69.9375 84.5613 70.1241C84.7633 70.3107 84.8873 70.5667 84.9083 70.8409C84.9193 70.9771 84.9027 71.1142 84.8595 71.2438C84.8163 71.3734 84.7473 71.4929 84.6568 71.5953C84.5652 71.6991 84.4538 71.7832 84.3288 71.8427C84.204 71.9023 84.0683 71.936 83.9301 71.9418H83.8747C83.5996 71.9426 83.3344 71.8392 83.1323 71.6524C82.9302 71.4656 82.8065 71.2093 82.7857 70.935C82.7749 70.7987 82.7917 70.6616 82.8351 70.532C82.8785 70.4025 82.9475 70.2829 83.0382 70.1806C83.1297 70.0771 83.2411 69.9932 83.3657 69.9336C83.4905 69.8741 83.6258 69.8402 83.7638 69.8341H83.8193V69.8351ZM83.8193 69.6104H83.7529C83.586 69.6178 83.4224 69.6588 83.2716 69.7306C83.1208 69.8026 82.986 69.9041 82.8752 70.0291C82.7644 70.1542 82.6799 70.3002 82.6265 70.4585C82.5732 70.6168 82.5523 70.7842 82.5649 70.9508C82.5918 71.2809 82.7415 71.5888 82.9847 71.8136C83.2278 72.0384 83.5465 72.1637 83.8777 72.1646H83.944C84.1109 72.157 84.2746 72.1161 84.4253 72.0442C84.5761 71.9723 84.7109 71.8708 84.8217 71.7458C84.9325 71.6207 85.0171 71.4747 85.0703 71.3164C85.1237 71.1581 85.1446 70.9907 85.132 70.8241C85.1052 70.494 84.9554 70.1861 84.7122 69.9613C84.4691 69.7365 84.1504 69.6112 83.8193 69.6104Z" fill="white"/>
<path d="M86.1861 70.7715L85.3743 70.8131" stroke="black" stroke-width="0.44748" stroke-miterlimit="10"/>
<path opacity="0.53" d="M88.7801 71.4448C89.1867 70.8692 89.0385 70.0649 88.4491 69.6485C87.8596 69.2321 87.0521 69.3611 86.6455 69.9367C86.2388 70.5124 86.387 71.3166 86.9765 71.7331C87.5659 72.1495 88.3734 72.0205 88.7801 71.4448Z" fill="white"/>
<path opacity="0.53" d="M84.9135 71.6382C85.3202 71.0626 85.172 70.2583 84.5825 69.8419C83.993 69.4254 83.1856 69.5545 82.7789 70.1301C82.3722 70.7058 82.5204 71.51 83.1099 71.9264C83.6994 72.3429 84.5068 72.2138 84.9135 71.6382Z" fill="white"/>
<path d="M86.9304 75.4502L88.7332 79.7329C88.7332 79.7329 92.2111 80.6685 93.0565 77.3777" stroke="black" stroke-width="0.44748" stroke-miterlimit="10"/>
<path d="M52.7247 97.6463C54.0862 97.2169 54.7988 95.6287 54.3165 94.0987C53.8341 92.5688 52.3393 91.6765 50.9777 92.1058C49.6163 92.5351 48.9036 94.1234 49.386 95.6533C49.8683 97.1833 51.3631 98.0755 52.7247 97.6463Z" fill="#DFDAF1"/>
<path d="M86.4488 106.321C86.4102 102.835 85.7954 99.3912 85.5123 97.9854" stroke="black" stroke-width="0.44748" stroke-miterlimit="10"/>
</svg>
