<svg width="150" height="150" viewBox="0 0 150 150" fill="none" xmlns="http://www.w3.org/2000/svg">
<circle cx="75" cy="75" r="75" fill="#F0F0F0"/>
<path d="M33.7117 79.9958C33.6424 79.1147 33.589 78.2326 33.5464 77.3525" stroke="black" stroke-width="0.40095" stroke-miterlimit="10"/>
<path d="M83.8199 111.688H58.6719" stroke="#CCDDE2" stroke-width="0.40095" stroke-miterlimit="10"/>
<path d="M91.1616 48.6897C91.1616 48.6897 98.5728 45.19 104.86 52.0181C106.915 54.2495 108.316 57.2106 108.415 60.2658C108.46 61.7565 108.22 63.242 107.707 64.6426C107.186 66.0721 106.249 67.0186 105.529 68.2917C104.426 70.2549 106.733 70.6024 107.972 71.5537C108.795 72.1914 109.576 72.8818 110.309 73.6209C111.962 75.2718 113.417 77.1101 114.643 79.0985C117.072 83.0592 118.535 87.5359 118.912 92.1665C119.286 96.7324 118.999 101.69 116.658 105.746C115.531 107.7 113.835 109.615 111.748 110.526C108.976 111.735 105.862 111.689 102.9 111.689H96.5967" stroke="#CCDDE2" stroke-width="0.40095" stroke-miterlimit="10"/>
<path d="M60.269 94.314C60.0205 96.0821 59.6502 98.1106 59.2414 100.141L58.7592 100.279C57.2162 100.712 55.5776 100.664 54.0627 100.141L54.6943 97.9948L50.8491 86.8078C50.8491 86.8078 53.7884 85.8574 56.2021 85.1515L56.4793 85.1396C57.7979 85.4178 60.5155 86.4623 60.6006 90.3738C60.6066 90.5619 60.6006 90.7599 60.6006 90.9757C60.9838 92.2379 60.8313 93.3507 60.269 94.314Z" fill="#7765C4"/>
<path d="M51.2182 51.7301C51.1803 51.6336 51.1061 51.5559 51.0115 51.5135C50.917 51.471 50.8096 51.4675 50.7123 51.5034C50.6578 51.5198 50.6075 51.5478 50.5648 51.5856C50.4124 51.7093 50.3777 51.9261 50.3728 52.132C50.3589 52.6023 50.3322 53.0735 50.2975 53.5418C50.2975 53.5735 50.2926 53.6091 50.2926 53.6408C50.2708 54.018 50.2866 54.4754 50.1263 54.8041C50.116 54.8291 50.0983 54.8505 50.0758 54.8654C50.0223 54.8902 49.9659 54.8367 49.9312 54.7882C49.8322 54.6437 49.7332 54.5021 49.6342 54.3546C49.556 54.2368 49.4679 54.1091 49.3313 54.0715C49.1283 54.015 48.9353 54.1942 48.8234 54.3764C48.4621 54.9704 48.4274 55.9435 48.9868 56.4415C49.5461 56.9395 48.2938 57.9186 47.3968 58.3304C47.2466 58.4149 47.0892 58.4858 46.9266 58.5423C46.9187 58.5423 47.2503 58.6165 47.2424 58.6195C46.5444 58.8625 45.8174 59.012 45.0802 59.064C44.2051 59.1224 43.3517 59.0125 42.731 58.6324C42.7577 58.5334 42.9695 57.8404 42.9824 57.7414C43.028 57.3959 43.0606 57.0533 43.0814 56.7058C43.119 56.0534 43.1161 55.4 43.0913 54.7496C43.0012 52.4092 43.418 50.4431 44.3843 50.1431C44.4605 50.1203 44.5336 50.088 44.6021 50.0471C45.0377 49.8065 45.2703 49.2987 45.0703 48.8195C45.0565 48.7868 45.0406 48.7552 45.0268 48.7205C45.0111 48.6863 44.9932 48.6533 44.9733 48.6215C46.8602 48.0354 48.1413 48.4423 49.4362 49.1512C49.6826 49.3481 49.9142 49.5628 50.1292 49.7937C50.636 50.3439 51.0087 51.0039 51.2182 51.7222V51.7301Z" fill="#7765C4"/>
<path d="M96.5769 74.2319H90.1419V58.8512C90.1419 58.8512 88.9539 72.2152 85.6987 79.7868H65.769C68.1183 78.2938 70.0023 76.0386 71.2566 73.6111C71.7516 72.6508 72.5436 71.2252 73.8603 71.5995C74.1732 71.6876 74.6335 71.744 74.8662 71.4579C74.9464 71.3481 74.992 71.2166 74.9968 71.0807C75.1097 69.6789 73.6564 68.4988 72.4585 68.1265C71.2606 67.7543 69.8607 67.9285 68.9073 68.7987C68.2203 69.4274 67.7896 70.262 67.2867 71.0352C66.9849 71.4933 66.627 71.9121 66.2215 72.2816C66.7383 69.1433 67.1986 66.1436 67.2649 65.0397C68.5252 64.0448 69.4509 62.4222 69.7795 60.9867C70.1409 59.4185 70.4597 57.885 71.021 56.4168L75.6156 56.4327C75.7885 56.4327 75.9546 56.364 76.0768 56.2416C76.1992 56.1192 76.268 55.9533 76.268 55.7802V48.1493C76.2682 47.9779 76.2006 47.8133 76.0798 47.6916C75.959 47.5699 75.795 47.501 75.6235 47.4999L72.4951 47.4732C73.632 47.2356 74.7848 47.0816 75.9443 47.0128C75.968 47.0128 75.9898 47.0128 76.0106 47.0128C76.7739 46.9623 78.1114 46.9405 78.8816 46.9326C77.9639 47.4276 77.3966 48.479 77.4956 49.4076C77.513 49.6054 77.5635 49.7989 77.6451 49.9798C78.4292 51.7024 80.4943 52.2113 82.1991 51.7104C84.0959 51.1569 85.4898 49.4126 85.4067 47.4058C86.5947 47.5801 87.7708 47.8011 88.935 48.0691C90.7042 48.476 92.4297 49.0245 93.8286 50.2204C95.0483 51.2589 96.0819 52.5964 96.56 54.1081C98.6133 60.5718 97.9817 67.785 96.5769 74.2319Z" fill="#2E2E2E"/>
<path d="M67.3167 65.04C67.1722 67.4022 66.7999 69.7623 66.396 72.1166" stroke="black" stroke-width="0.40095" stroke-miterlimit="10"/>
<path d="M71.0724 56.4161C70.5101 57.8843 70.1923 59.4178 69.8309 60.986C69.4993 62.4165 68.5756 64.0441 67.3163 65.039C66.259 65.8736 64.9641 66.2666 63.5781 65.7399C61.7189 65.0311 61.0665 62.9818 60.8388 61.1751C60.5429 58.9253 60.5248 56.6477 60.7853 54.3936C61.0477 54.9767 62.1198 56.7507 65.4452 56.2845C65.5345 56.3512 65.6419 56.3895 65.7531 56.3943L71.0724 56.4161Z" fill="#2E2E2E"/>
<path d="M69.2054 51.3412C69.9796 51.1432 70.4509 51.8877 70.336 52.454C70.1489 53.3777 68.8203 53.741 68.0293 53.7578C67.3957 53.7707 65.8513 53.6034 65.2217 53.5301" stroke="black" stroke-width="0.40095" stroke-miterlimit="10"/>
<path d="M64.9615 51.7983C65.9194 52.0751 66.9335 52.0919 67.8999 51.8468C68.7126 51.638 69.673 51.2528 70.0987 50.4797C70.3471 50.0302 70.1491 49.3134 69.6304 49.155C69.0314 48.9739 68.477 49.5698 67.9345 49.7203C67.5845 49.8157 67.2273 49.8819 66.8663 49.9183C66.7673 49.9292 66.6742 49.9371 66.5782 49.9451C66.073 49.9855 65.5651 49.9819 65.0605 49.9342C65.0069 49.9342 64.9545 49.9172 64.9111 49.8859C64.8675 49.8544 64.835 49.81 64.8181 49.759C64.8013 49.7081 64.8009 49.6531 64.817 49.6019C64.8331 49.5507 64.865 49.5059 64.9081 49.4738L64.9992 49.4075" stroke="black" stroke-width="0.40095" stroke-miterlimit="10"/>
<path d="M71.0726 56.4167C70.5103 57.8849 70.1925 59.4184 69.8312 60.9865C69.2213 63.619 66.6206 66.8988 63.5783 65.7385C61.7191 65.0297 61.0667 62.9804 60.839 61.1737C60.4826 58.3759 60.5123 55.5019 61.037 52.728C61.4726 50.443 62.2458 48.0433 64.4693 46.9196L65.5128 46.3979C65.7616 46.2722 66.0498 46.2488 66.3157 46.3328C66.5815 46.4168 66.804 46.6015 66.9354 46.8474C67.0155 47.0002 67.058 47.1699 67.0592 47.3424C67.0602 47.3676 67.0582 47.3929 67.0532 47.4176" stroke="black" stroke-width="0.40095" stroke-miterlimit="10"/>
<path d="M92.2666 77.8916C92.8042 77.875 93.3422 77.8886 93.8783 77.9322C94.3159 77.9679 94.7693 77.9887 95.1861 78.152C95.5296 78.2886 95.888 78.6143 95.8702 79.0123C95.8375 79.7924 94.8159 79.7865 94.2555 79.7865" stroke="black" stroke-width="0.40095" stroke-miterlimit="10"/>
<path opacity="0.54" d="M82.6513 77.1484L87.3102 65.212C87.368 64.9806 87.372 64.7391 87.3223 64.506C87.2726 64.2728 87.1704 64.0541 87.0233 63.8664C86.8763 63.6787 86.6884 63.527 86.474 63.4228C86.2595 63.3188 86.024 63.2649 85.7857 63.2656H67.2845C66.8698 63.2665 66.4676 63.4069 66.1423 63.664C65.817 63.9211 65.5875 64.2801 65.4906 64.6833L60.3842 76.6168C60.3289 76.8471 60.3264 77.087 60.3771 77.3185C60.4279 77.5499 60.5305 77.767 60.6771 77.953C60.8237 78.1391 61.0107 78.2896 61.2238 78.393C61.437 78.4964 61.6709 78.5501 61.9078 78.5502H80.8564C81.2691 78.5499 81.6697 78.4119 81.9949 78.1579C82.3202 77.904 82.5511 77.5487 82.6513 77.1484Z" fill="white"/>
<path d="M82.6513 77.1484L87.3102 65.212C87.368 64.9806 87.372 64.7391 87.3223 64.506C87.2726 64.2728 87.1704 64.0541 87.0233 63.8664C86.8763 63.6787 86.6884 63.527 86.474 63.4228C86.2595 63.3188 86.024 63.2649 85.7857 63.2656H67.2845C66.8698 63.2665 66.4676 63.4069 66.1423 63.664C65.817 63.9211 65.5875 64.2801 65.4906 64.6833L60.3842 76.6168C60.3289 76.8471 60.3264 77.087 60.3771 77.3185C60.4279 77.5499 60.5305 77.767 60.6771 77.953C60.8237 78.1391 61.0107 78.2896 61.2238 78.393C61.437 78.4964 61.6709 78.5501 61.9078 78.5502H80.8564C81.2691 78.5499 81.6697 78.4119 81.9949 78.1579C82.3202 77.904 82.5511 77.5487 82.6513 77.1484Z" fill="#7765C4"/>
<path d="M82.6513 77.1484L87.3102 65.212C87.368 64.9806 87.372 64.7391 87.3223 64.506C87.2726 64.2728 87.1704 64.0541 87.0233 63.8664C86.8763 63.6787 86.6884 63.527 86.474 63.4228C86.2595 63.3188 86.024 63.2649 85.7857 63.2656H67.2845C66.8698 63.2665 66.4676 63.4069 66.1423 63.664C65.817 63.9211 65.5875 64.2801 65.4906 64.6833L60.3842 76.6168C60.3289 76.8471 60.3264 77.087 60.3771 77.3185C60.4279 77.5499 60.5305 77.767 60.6771 77.953C60.8237 78.1391 61.0107 78.2896 61.2238 78.393C61.437 78.4964 61.6709 78.5501 61.9078 78.5502H80.8564C81.2691 78.5499 81.6697 78.4119 81.9949 78.1579C82.3202 77.904 82.5511 77.5487 82.6513 77.1484Z" stroke="black" stroke-width="0.40095" stroke-linecap="square" stroke-linejoin="round"/>
<path d="M81.9696 76.6651L86.2682 65.6533C86.3214 65.4401 86.3255 65.2177 86.2799 65.0028C86.2342 64.7878 86.1403 64.5862 86.005 64.413C85.8698 64.24 85.6968 64.0999 85.4993 64.0036C85.3019 63.9073 85.085 63.8573 84.8653 63.8574H67.7928C67.4096 63.8573 67.0374 63.9862 66.7364 64.2235C66.4353 64.4608 66.2231 64.7925 66.1336 65.1652L61.432 76.175C61.3814 76.3875 61.3795 76.6086 61.4265 76.8219C61.4735 77.0351 61.5682 77.235 61.7034 77.4065C61.8386 77.5779 62.011 77.7165 62.2075 77.8119C62.4039 77.9072 62.6195 77.9568 62.8378 77.957H80.3143C80.6949 77.9573 81.0645 77.8303 81.3645 77.5961C81.6645 77.362 81.8775 77.0342 81.9696 76.6651Z" fill="#443586"/>
<path d="M69.0243 65.8865C69.251 65.547 69.6183 65.3915 69.8519 65.5489C70.0855 65.7063 70.0855 66.1023 69.8598 66.4399C69.8242 66.4919 69.7845 66.5409 69.741 66.5865L71.4181 70.1277C71.6854 69.9495 71.9794 69.9049 72.1913 70.0455C72.2592 70.0951 72.3154 70.1589 72.3561 70.2323C72.3969 70.3059 72.421 70.3875 72.4269 70.4712L73.5733 70.0851L74.5752 69.7475L74.9019 69.6406C74.9433 69.5175 75.0005 69.4004 75.0722 69.2921C75.39 68.814 75.9097 68.5991 76.2334 68.8169C76.5572 69.0347 76.5611 69.5842 76.2523 70.0584L78.163 72.667C78.5797 72.3255 79.0698 72.2196 79.4094 72.4453C79.8717 72.7532 79.8786 73.5561 79.4252 74.2372C79.4064 74.2649 79.3856 74.2867 79.3668 74.3124L80.638 76.0509L80.6498 76.0677C80.7149 76.1658 80.7382 76.2857 80.7148 76.4009C80.6914 76.5163 80.6232 76.6175 80.5251 76.6825C80.4271 76.7475 80.3072 76.7709 80.1919 76.7474C80.0766 76.7241 79.9753 76.6558 79.9103 76.5577L78.7817 74.8539C78.4243 75.0609 78.0442 75.1005 77.766 74.9153C77.3244 74.6183 77.3026 73.8778 77.6967 73.2175L75.8681 70.4574C75.5979 70.6405 75.2999 70.687 75.086 70.5455C74.9672 70.4611 74.8863 70.3335 74.8603 70.1901L74.7237 70.2277L73.705 70.5059L72.4002 70.8583C72.3595 71.0146 72.2926 71.1629 72.2022 71.2969C71.8844 71.7741 71.3646 71.9899 71.0409 71.7721C70.7172 71.5543 70.7122 70.9949 71.03 70.5168C71.0766 70.4466 71.1289 70.3803 71.1864 70.3188L69.5896 66.7112C69.3975 66.8429 69.1846 66.8765 69.0322 66.7746C68.8025 66.6221 68.7985 66.2221 69.0243 65.8865Z" fill="#D7E8F0"/>
<path d="M81.1724 66.0769H83.6474C83.7605 66.0767 83.8712 66.0437 83.9659 65.9819C84.0607 65.92 84.1353 65.832 84.181 65.7284C84.1945 65.6971 84.202 65.6635 84.2028 65.6294C84.2026 65.5619 84.1755 65.4972 84.1276 65.4494C84.0798 65.4018 84.0149 65.375 83.9473 65.375H81.3169C81.4406 65.5819 81.3783 65.872 81.1724 66.0769Z" fill="#D7E8F0"/>
<path d="M79.5728 65.8235C79.5731 65.8907 79.6 65.9553 79.6477 66.0027C79.6953 66.0502 79.7599 66.0769 79.8272 66.0769H81.1726C81.3785 65.872 81.4409 65.5819 81.3171 65.373H80.1291C80.0161 65.3729 79.9055 65.4058 79.8108 65.4675C79.716 65.5292 79.6413 65.6171 79.5955 65.7205C79.581 65.7529 79.5732 65.788 79.5728 65.8235Z" fill="#7765C4"/>
<path d="M80.1913 66.077C80.1986 66.0905 80.2068 66.1034 80.2161 66.1156C80.3923 66.3571 80.7754 66.3799 81.0724 66.1631C81.1077 66.137 81.1407 66.1082 81.1714 66.077C81.3774 65.872 81.4397 65.582 81.316 65.3731C81.3095 65.3594 81.3015 65.3464 81.2922 65.3345C81.117 65.0919 80.7339 65.0711 80.4369 65.2859C80.4017 65.3125 80.3686 65.3416 80.3379 65.3731C80.1319 65.579 80.0696 65.8671 80.1913 66.077Z" fill="white"/>
<path d="M78.9551 67.3772C78.9556 67.4446 78.9828 67.5091 79.0306 67.5565C79.0784 67.604 79.1431 67.6306 79.2106 67.6306H81.8073C81.6816 67.4208 81.744 67.1356 81.9499 66.9268H79.5076C79.3942 66.9269 79.2834 66.9598 79.1885 67.0217C79.0936 67.0836 79.0187 67.1716 78.973 67.2752C78.9605 67.3078 78.9544 67.3424 78.9551 67.3772Z" fill="#7765C4"/>
<path d="M81.8031 67.6306H83.0247C83.1376 67.6306 83.2481 67.5979 83.3428 67.5363C83.4376 67.4749 83.5124 67.3873 83.5584 67.2841C83.5723 67.2529 83.58 67.2192 83.5811 67.1851C83.5812 67.1516 83.5747 67.1185 83.562 67.0876C83.5492 67.0567 83.5305 67.0286 83.5069 67.0049C83.4832 66.9813 83.4551 66.9625 83.4242 66.9498C83.3932 66.937 83.3602 66.9306 83.3267 66.9307H81.9456C81.7397 67.1326 81.6774 67.4207 81.8031 67.6306Z" fill="#D7E8F0"/>
<path d="M81.8032 67.63C81.8089 67.6437 81.8161 67.6566 81.8249 67.6686C82.0002 67.9112 82.3833 67.933 82.6803 67.7171C82.7154 67.6906 82.7485 67.6614 82.7793 67.63C82.9832 67.4241 83.0456 67.135 82.9238 66.9261C82.9166 66.9128 82.9087 66.8999 82.9001 66.8875C82.7229 66.646 82.3397 66.6242 82.0427 66.841C82.0075 66.8667 81.9744 66.8951 81.9437 66.9261C81.7398 67.132 81.6774 67.4201 81.8032 67.63Z" fill="white"/>
<path d="M80.9351 69.1726H82.4894C82.6025 69.1724 82.7132 69.1396 82.808 69.0779C82.9029 69.0163 82.9779 68.9285 83.024 68.8251C83.0375 68.7939 83.0449 68.7602 83.0457 68.7261C83.0457 68.6583 83.0189 68.5932 82.971 68.5452C82.9231 68.4971 82.8581 68.4699 82.7903 68.4697H81.0826C81.2053 68.6786 81.142 68.9667 80.9351 69.1726Z" fill="#7765C4"/>
<path d="M78.418 68.9202C78.4181 68.9536 78.4248 68.9864 78.4377 69.0171C78.4505 69.0478 78.4693 69.0757 78.4929 69.0992C78.5166 69.1226 78.5446 69.1412 78.5754 69.1537C78.6062 69.1664 78.6391 69.1729 78.6724 69.1727H80.9345C81.1385 68.9667 81.2018 68.6777 81.0791 68.4678H78.9743C78.861 68.4677 78.7501 68.5007 78.6554 68.5628C78.5605 68.6249 78.4859 68.7133 78.4407 68.8172C78.4262 68.8496 78.4184 68.8848 78.418 68.9202Z" fill="#D7E8F0"/>
<path d="M79.9567 69.1728C79.9639 69.1864 79.9722 69.1993 79.9815 69.2114C80.1567 69.454 80.5389 69.4748 80.8368 69.259C80.872 69.2328 80.9051 69.2041 80.9358 69.1728C81.1398 68.9669 81.2031 68.6778 81.0804 68.468C81.0738 68.4543 81.0659 68.4413 81.0566 68.4293C80.8794 68.1888 80.4973 68.168 80.1993 68.3828C80.1642 68.4089 80.1312 68.4373 80.1003 68.468C79.8963 68.6739 79.833 68.9639 79.9567 69.1728Z" fill="white"/>
<path d="M70.8877 76.447H72.443C72.5559 76.4468 72.6665 76.4139 72.7612 76.3523C72.8559 76.2906 72.9307 76.2028 72.9766 76.0995C72.9902 76.0682 72.9975 76.0346 72.9984 76.0005C72.9984 75.9328 72.9714 75.8679 72.9235 75.82C72.8756 75.772 72.8107 75.7451 72.743 75.7451H71.0352C71.155 75.953 71.0916 76.2411 70.8877 76.447Z" fill="#7765C4"/>
<path d="M64.7158 76.1946C64.7159 76.2279 64.7227 76.2607 64.7355 76.2915C64.7483 76.3222 64.7671 76.35 64.7908 76.3735C64.8143 76.397 64.8423 76.4155 64.8731 76.4281C64.904 76.4407 64.937 76.4472 64.9703 76.4471H70.8875C71.0914 76.2411 71.1548 75.9521 71.032 75.7432H65.2722C65.1589 75.7431 65.0483 75.7759 64.9534 75.8378C64.8587 75.8998 64.784 75.9879 64.7386 76.0916C64.7244 76.1241 64.7167 76.1591 64.7158 76.1946Z" fill="#D7E8F0"/>
<path d="M69.9067 76.4472C69.9138 76.4606 69.9221 76.4736 69.9314 76.4858C70.1067 76.7283 70.4888 76.7491 70.7868 76.5343C70.8218 76.5075 70.8548 76.4784 70.8858 76.4472C71.0897 76.2412 71.1531 75.9522 71.0303 75.7433C71.0238 75.7295 71.0159 75.7165 71.0066 75.7047C70.8294 75.4631 70.4472 75.4423 70.1492 75.6571C70.114 75.6832 70.0808 75.712 70.0502 75.7433C69.8473 75.9482 69.7829 76.2383 69.9067 76.4472Z" fill="white"/>
<path d="M31.7501 80.2602C31.7501 80.2602 28.4831 95.0181 36.8872 98.101C45.2913 101.184 67.993 98.2881 58.5583 87.6396C49.1236 76.9912 31.7501 80.2602 31.7501 80.2602Z" fill="#2E2E2E"/>
<path d="M72.5278 47.4732C73.6701 47.2349 74.8281 47.0805 75.9928 47.0109C76.0176 47.0109 76.0384 47.0109 76.0602 47.0109C76.8254 46.9604 78.1659 46.9386 78.9312 46.9307" stroke="black" stroke-width="0.40095" stroke-miterlimit="10"/>
<path d="M66.8675 49.915C66.859 49.9203 66.8537 49.9267 66.8452 49.932" stroke="black" stroke-width="0.40095" stroke-miterlimit="10"/>
<path d="M79.8907 43.7108C79.3066 44.0177 78.6353 43.8098 78.3779 43.2871" stroke="black" stroke-width="0.40095" stroke-miterlimit="10"/>
<path d="M76.4997 36.2511C76.4734 36.7053 76.5899 37.1563 76.833 37.5409C77.0761 37.9255 77.4335 38.2242 77.8551 38.3954C77.9443 38.2318 78.072 38.0925 78.2273 37.9895C78.8837 37.5648 78.7668 38.6994 80.5488 38.4004C83.0189 37.9836 83.6485 38.8439 83.6485 38.8439C83.703 38.9191 83.5495 39.4102 83.5278 39.5003C83.4288 40.0279 83.3298 40.5526 83.2397 41.0843C83.1816 41.4063 83.1228 41.7264 83.0634 42.0446C83.1084 42.001 83.156 41.9603 83.206 41.9228C83.6119 41.2892 84.2069 40.5784 84.8553 41.1585C84.9855 41.2793 85.0852 41.4293 85.1464 41.5961C85.4434 42.4029 84.8751 42.9217 84.2109 43.2326C84.0356 43.3386 83.8494 43.4252 83.6555 43.491C83.6881 43.6949 83.8238 44.5077 83.8238 44.5097C83.8376 44.5928 85.487 43.5761 85.6246 43.4523C85.8732 43.1236 86.0649 42.7555 86.1918 42.3633C86.7047 40.7457 86.6175 38.6548 85.585 37.3242C85.3286 36.9946 85.4998 36.8045 85.5741 36.4837C85.5777 36.4664 85.576 36.4485 85.5692 36.4323C85.5625 36.4159 85.551 36.4021 85.5363 36.3924C85.5216 36.3827 85.5043 36.3776 85.4867 36.3778C85.4691 36.3781 85.4519 36.3835 85.4375 36.3936C84.8811 36.7431 83.8743 36.3857 83.8743 36.3857C80.6073 34.4235 78.9332 35.6373 78.1323 35.6987C77.8074 35.7209 77.485 35.6292 77.2205 35.4393C77.1739 35.5312 77.1033 35.6086 77.0161 35.6633C76.9289 35.7181 76.8284 35.7481 76.7255 35.7501L76.6938 35.9204C76.6695 36.0498 76.6009 36.1667 76.4997 36.2511Z" fill="#7765C4"/>
<path d="M77.857 38.3993C77.4354 38.2282 77.078 37.9294 76.835 37.5448C76.5918 37.1602 76.4753 36.7092 76.5017 36.255C76.5113 36.0805 76.5365 35.9073 76.577 35.7372L76.6057 35.7431C76.6446 35.7519 76.6846 35.7549 76.7245 35.752C76.8273 35.7501 76.9278 35.7201 77.015 35.6653C77.1023 35.6106 77.1729 35.5331 77.2195 35.4412C77.2467 35.3901 77.2658 35.335 77.2759 35.2778L77.4284 34.4492C77.4284 34.4492 77.9234 35.1194 78.7154 35.0571C79.5074 34.9947 81.1815 33.781 84.4574 35.7441C84.4574 35.7441 85.2434 36.0342 85.7998 35.6847C85.8143 35.6747 85.8314 35.6692 85.849 35.669C85.8666 35.6688 85.8839 35.6738 85.8986 35.6835C85.9133 35.6932 85.9247 35.7071 85.9315 35.7233C85.9382 35.7397 85.9399 35.7576 85.9364 35.7748C85.8622 36.0946 85.9117 36.353 86.1681 36.6826C87.2007 38.0132 87.2878 40.1041 86.775 41.7217C86.5504 42.3922 86.1516 42.9907 85.6196 43.4562C85.482 43.58 83.8327 44.5967 83.8188 44.5135C83.8188 44.5135 83.6832 43.6988 83.6505 43.4948L83.6426 43.4483L83.6891 43.4344C83.8655 43.3799 84.0381 43.3138 84.2059 43.2364C84.8702 42.9256 85.4414 42.4068 85.1415 41.6C85.0803 41.4333 84.9806 41.2833 84.8504 41.1624C84.2019 40.5822 83.607 41.2931 83.2011 41.9267C83.1225 42.047 83.0581 42.1759 83.009 42.3108C83.0248 42.2237 83.0407 42.1385 83.0575 42.0514C83.1169 41.7326 83.1756 41.4126 83.2337 41.0911C83.3327 40.5624 83.4248 40.0377 83.5218 39.5071C83.5396 39.417 83.697 38.926 83.6426 38.8507C83.6426 38.8507 83.013 37.9904 80.5429 38.4072C78.7609 38.7042 78.8777 37.5717 78.2214 37.9964C78.066 38.0993 77.9382 38.2387 77.8491 38.4023C77.8215 38.4556 77.797 38.5105 77.7759 38.5666C77.7723 38.5736 77.7693 38.581 77.7669 38.5884C77.7224 38.7111 77.6818 38.8349 77.6422 38.9557C77.2719 40.1328 77.0274 41.4039 77.1581 42.6405C77.3175 44.1393 78.4095 45.9015 80.1469 45.752C80.6936 45.688 81.2268 45.5383 81.7269 45.3085" stroke="black" stroke-width="0.40095" stroke-miterlimit="10"/>
<path d="M78.0465 41.5939C78.2165 41.589 78.3495 41.4186 78.3438 41.213C78.338 41.0075 78.1955 40.8449 78.0255 40.8497C77.8555 40.8545 77.7224 41.0249 77.7282 41.2305C77.7341 41.436 77.8765 41.5986 78.0465 41.5939Z" fill="black"/>
<path d="M80.3732 42.2189C80.5431 42.214 80.6762 42.0436 80.6705 41.8381C80.6646 41.6326 80.5222 41.4699 80.3522 41.4747C80.1822 41.4796 80.049 41.65 80.0549 41.8555C80.0607 42.061 80.2032 42.2237 80.3732 42.2189Z" fill="black"/>
<path d="M79.3685 42.3563C79.3685 42.3563 78.4686 42.5543 78.5596 42.093C78.5874 41.9485 78.8131 40.5288 78.8131 40.5288C78.8131 40.5288 78.3933 39.6833 77.2954 39.8804" stroke="black" stroke-width="0.40095" stroke-miterlimit="10"/>
<path d="M79.7729 40.4025C79.7729 40.4025 81.1995 40.1599 81.746 41.2994" stroke="black" stroke-width="0.40095" stroke-miterlimit="10"/>
<path d="M78.9469 46.9189C77.8232 47.5129 77.2233 48.9425 77.6935 49.9771C78.4776 51.7006 80.5418 52.2075 82.2475 51.7096C84.1444 51.1552 85.5383 49.4068 85.4551 47.4021" stroke="black" stroke-width="0.40095" stroke-miterlimit="10"/>
<path d="M85.7505 79.7852C89.0086 72.2137 90.1917 58.8497 90.1917 58.8497V77.4954C90.1916 77.7961 90.2507 78.0939 90.3657 78.3718C90.4807 78.6497 90.6494 78.9021 90.8621 79.1148C91.0747 79.3275 91.3272 79.4962 91.6051 79.6112C91.883 79.7262 92.1808 79.7853 92.4815 79.7852H99.7085C99.9795 79.7895 100.242 79.6935 100.447 79.5157C100.651 79.3379 100.783 79.0908 100.816 78.822C100.831 78.6739 100.814 78.5243 100.767 78.383C100.721 78.2417 100.645 78.1118 100.545 78.0016C100.445 77.8916 100.323 77.8035 100.186 77.7435C100.05 77.6834 99.903 77.6525 99.7541 77.6528H96.794C96.676 77.6524 96.5595 77.6251 96.4537 77.5729C96.3478 77.5207 96.2552 77.4451 96.183 77.3517C96.1108 77.2583 96.0609 77.1497 96.0371 77.034C96.0133 76.9184 96.0161 76.7989 96.0455 76.6846C97.8275 69.6556 98.9294 61.4049 96.6098 54.1036C96.1307 52.5969 95.0981 51.2544 93.8784 50.2169C92.4786 49.021 90.753 48.4725 88.9848 48.0666C87.8186 47.7993 86.6422 47.5782 85.4555 47.4033C85.452 47.4045 85.4482 47.4045 85.4446 47.4033C85.4367 47.4033 85.4288 47.4033 85.4238 47.4033H85.4159H85.405H85.3892" stroke="black" stroke-width="0.40095" stroke-miterlimit="10"/>
<path d="M84.7087 44.04L84.578 46.4051C84.5656 46.6363 84.6381 46.864 84.7821 47.0453C84.9259 47.2266 85.1313 47.3489 85.3591 47.3892H85.3888C85.394 47.3878 85.3995 47.3878 85.4047 47.3892H85.4096H85.4235" stroke="black" stroke-width="0.40095" stroke-miterlimit="10"/>
<path d="M85.4443 47.4H85.4235H85.4156H85.4096H85.4047H85.3888H85.3591C85.1313 47.3597 84.9259 47.2373 84.7821 47.056C84.6381 46.8747 84.5656 46.647 84.578 46.4159L84.7087 44.0508" stroke="black" stroke-width="0.40095" stroke-miterlimit="10"/>
<path d="M79.1339 45.6047C79.0695 45.5789 79.1339 48.246 77.543 49.4043" stroke="black" stroke-width="0.40095" stroke-miterlimit="10"/>
<path d="M57.8343 79.7871H52.7378" stroke="black" stroke-width="0.40095" stroke-miterlimit="10"/>
<path d="M107.624 79.7871H65.769" stroke="black" stroke-width="0.40095" stroke-miterlimit="10"/>
<path d="M43.0918 54.7463C43.1409 55.7448 43.1052 56.7457 42.9849 57.7381C42.8305 58.9043 41.7524 60.3864 41.5187 61.5397C41.1851 63.1989 41.69 64.9136 42.383 66.4541C43.2205 68.3163 44.5402 70.1893 44.4115 72.3218C44.3456 73.2505 44.0691 74.1521 43.6034 74.9583C43.1375 75.7643 42.4944 76.454 41.7227 76.9748C40.6655 77.682 39.4581 78.1329 38.1963 78.2915C38.0201 78.3123 37.8409 78.3291 37.6617 78.3341C37.5627 78.3341 37.4637 78.3232 37.3647 78.3153C34.0085 78.0311 30.5663 75.471 30.5742 71.907C30.5742 69.63 32.3048 67.848 32.5968 65.6383C32.776 64.287 32.38 62.8831 32.7463 61.5714C33.3403 59.4765 35.6361 58.3341 36.642 56.4056C37.3825 54.9819 37.5033 53.3207 38.0894 51.8278C38.9051 49.7488 40.208 47.3728 41.99 47.1748C42.507 47.2334 43.0069 47.3965 43.4591 47.654C44.564 48.248 44.8451 48.2856 45.0698 48.8152C45.2995 49.3686 44.957 49.9597 44.3848 50.1369C43.4185 50.4428 43.0017 52.406 43.0918 54.7463Z" fill="#443586"/>
<path d="M44.0635 47.9756C46.9642 47.135 48.8076 48.3716 50.1262 49.7972C51.4449 51.2227 51.3835 52.8414 51.3835 52.8414" stroke="black" stroke-width="0.40095" stroke-miterlimit="10"/>
<path d="M53.0605 75.8584C53.0167 78.1246 52.7296 80.3795 52.2041 82.5845" stroke="black" stroke-width="0.40095" stroke-miterlimit="10"/>
<path d="M60.2689 94.3138C59.2066 96.1413 56.6871 97.4392 53.6042 98.247C48.1335 99.6806 40.8906 99.5687 36.889 98.0995C28.48 95.0177 31.749 80.2597 31.749 80.2597C31.749 80.2597 46.2931 77.5224 55.9911 85.2097C56.9176 85.942 57.7776 86.7547 58.5611 87.6382C59.6333 88.8509 60.2916 89.9607 60.6025 90.9745C60.9837 92.2377 60.8312 93.3505 60.2689 94.3138Z" stroke="black" stroke-width="0.40095" stroke-miterlimit="10"/>
<path d="M54.6939 97.998C54.6939 97.998 49.5984 112.142 58.1589 115.755C66.7195 119.367 26.7225 119.848 35.5513 115.755C44.3801 111.661 39.3054 98.8623 39.3054 98.8623" stroke="black" stroke-width="0.40095" stroke-miterlimit="10"/>
<path d="M65.0594 49.9309C64.9535 49.6071 64.997 48.4815 65.0317 47.8459C65.0383 47.7259 65.0915 47.6132 65.1798 47.5317C65.2681 47.4502 65.3847 47.4063 65.5049 47.4093L75.6752 47.4984C75.8467 47.5 76.0106 47.5692 76.1313 47.691C76.252 47.8129 76.3197 47.9774 76.3197 48.1489V55.7808C76.3197 55.8664 76.3027 55.9513 76.2699 56.0304C76.237 56.1095 76.1888 56.1813 76.1281 56.2417C76.0674 56.3022 75.9954 56.35 75.9161 56.3825C75.8369 56.4151 75.7519 56.4316 75.6663 56.4312L65.7554 56.3946C65.6118 56.3886 65.4761 56.3274 65.3766 56.2238C65.2771 56.12 65.2217 55.9818 65.2218 55.8382V55.2561C65.9267 55.5848 67.2592 55.6857 67.2592 55.6857C67.7334 55.6729 68.4828 55.6154 68.8937 55.3798C69.2699 55.164 69.7451 54.8541 69.8094 54.3849C69.8343 54.2034 69.7863 54.0195 69.6759 53.8732C69.5655 53.727 69.4018 53.6305 69.2204 53.6048C69.1114 53.583 68.9986 53.5909 68.8937 53.6275" stroke="black" stroke-width="0.40095" stroke-miterlimit="10"/>
<path d="M74.9852 71.0804C74.9805 71.2165 74.9346 71.3481 74.8535 71.4576C74.6209 71.7437 74.1605 71.6873 73.8477 71.5992C72.532 71.2249 71.742 72.6505 71.245 73.6108C69.9897 76.0383 68.1067 78.2935 65.7574 79.7865C65.605 79.8855 65.4495 79.9785 65.2921 80.0696C62.9963 81.3942 60.0214 81.1477 57.8008 79.7726L60.6401 72.798L60.9213 73.0228C62.6359 74.3761 64.7466 73.6168 66.2079 72.2813C66.6135 71.9118 66.9713 71.493 67.2731 71.0349C67.776 70.2617 68.2067 69.4271 68.8947 68.7984C69.8471 67.9282 71.241 67.758 72.4449 68.1262C73.6487 68.4945 75.0941 69.6786 74.9852 71.0804Z" fill="white"/>
<path d="M74.9731 70.5863C74.9731 70.5863 74.6503 68.8775 71.7407 70.2111" stroke="black" stroke-width="0.40095" stroke-miterlimit="10"/>
<path d="M73.3547 68.5355C73.3547 68.5355 71.541 67.9554 70.5312 69.3414" stroke="black" stroke-width="0.40095" stroke-miterlimit="10"/>
<path d="M36.7436 78.3182C37.2279 78.3613 37.7153 78.3533 38.1979 78.2944C39.4594 78.1336 40.6664 77.6819 41.7233 76.9747C42.495 76.4538 43.1382 75.7643 43.604 74.9581C44.0699 74.152 44.3462 73.2505 44.4121 72.3218C44.5408 70.1883 43.2241 68.3152 42.3836 66.453C41.6906 64.9116 41.1857 63.1969 41.5203 61.5397C41.753 60.3853 42.8291 58.9043 42.9845 57.7371C43.1054 56.7447 43.1418 55.7438 43.0934 54.7453C43.0033 52.4039 43.4191 50.4388 44.3854 50.1398C44.9576 49.9626 45.3011 49.3706 45.0705 48.8182C44.8497 48.2875 44.5656 48.2558 43.4597 47.6549C40.5769 46.0868 38.5721 49.0102 37.4653 51.8288C36.8782 53.3227 36.7594 54.9819 36.0179 56.4055C35.0121 58.335 32.7113 59.4745 32.1233 61.5733C31.756 62.8841 32.152 64.2889 31.9738 65.6383C31.6827 67.8469 29.9552 69.628 29.9502 71.9069C29.9423 75.47 33.3885 78.0321 36.7436 78.3182Z" stroke="black" stroke-width="0.40095" stroke-miterlimit="10"/>
<path d="M60.2688 94.3135C60.0203 96.0816 59.6501 98.1101 59.2422 100.141C58.0859 105.895 56.6147 111.685 56.6147 111.685" stroke="black" stroke-width="0.40095" stroke-miterlimit="10"/>
<path d="M60.5988 90.9751C60.6037 90.7593 60.6067 90.5613 60.5988 90.3732C60.5106 86.3142 57.5921 85.344 56.3368 85.1113C56.1495 85.0747 55.96 85.0505 55.7695 85.0391" stroke="black" stroke-width="0.40095" stroke-miterlimit="10"/>
<path d="M57.0499 109.93C57.2115 109.831 57.3965 109.777 57.586 109.774C57.7754 109.77 57.9623 109.817 58.1276 109.91C58.2928 110.002 58.4303 110.137 58.5259 110.301C58.6216 110.465 58.6719 110.651 58.6716 110.84C58.6716 110.854 58.6716 110.871 58.6716 110.891C58.6558 111.379 58.527 111.858 58.2953 112.289C58.0636 112.72 57.7353 113.091 57.3361 113.373L55.96 114.353" stroke="black" stroke-width="0.40095" stroke-miterlimit="10"/>
<path d="M41.418 62.8486C41.61 62.7703 41.806 62.701 42.004 62.6367C42.4208 61.8665 42.3565 60.1805 42.3169 59.5677L42.7337 58.6282C43.8841 59.335 45.4067 59.0697 46.8194 58.5777C47.0178 58.5084 47.2108 58.4243 47.3966 58.3262C48.2935 57.9144 49.5508 56.9402 48.9865 56.4373C48.4222 55.9344 48.4618 54.9662 48.8232 54.3722C48.9331 54.19 49.1281 54.0108 49.331 54.0673C49.4677 54.1049 49.5558 54.2326 49.634 54.3504C49.733 54.4979 49.832 54.6395 49.931 54.784C49.9656 54.8325 50.0221 54.883 50.0755 54.8612C50.0981 54.8464 50.1157 54.825 50.126 54.7999C50.3002 54.4415 50.2676 53.9277 50.2973 53.5346C50.3319 53.0664 50.3587 52.5951 50.3725 52.1249C50.3804 51.8655 50.4339 51.5873 50.7121 51.4962C50.7682 51.4746 50.8286 51.466 50.8885 51.4712C50.9485 51.4763 51.0065 51.495 51.0581 51.5259C51.1098 51.5569 51.1536 51.5992 51.1865 51.6496C51.2194 51.7001 51.2403 51.7573 51.2477 51.817C51.4501 52.9548 51.4798 54.1166 51.3358 55.2632C51.1992 56.464 50.9527 57.7382 50.1824 58.7064C49.7436 59.265 49.1556 59.6878 48.4866 59.9261C47.8391 60.1508 47.8599 60.9319 47.8599 61.617V62.7545C49.8508 63.1584 51.7209 63.6455 53.2673 65.0315C54.2899 65.9665 55.2522 66.9654 56.1482 68.0223C58.9687 71.3319 59.5785 71.9526 60.9368 73.0228C62.6515 74.3761 64.7632 73.6168 66.2234 72.2813C66.6282 71.9117 66.9854 71.4929 67.2867 71.0349C67.7896 70.2617 68.2202 69.4271 68.9073 68.7985C69.8607 67.9282 71.2546 67.758 72.4584 68.1262C73.6623 68.4945 75.1096 69.6786 74.9948 71.0804C74.99 71.2164 74.9444 71.3478 74.8641 71.4576C74.6315 71.7437 74.1711 71.6873 73.8583 71.5992C72.5416 71.2249 71.7526 72.6505 71.2546 73.6108C70.0003 76.0383 68.1163 78.2935 65.767 79.7865C65.6146 79.8855 65.4601 79.9785 65.3017 80.0696C62.6772 81.5843 59.1588 81.0438 56.9016 79.1143L51.4566 74.4919" stroke="black" stroke-width="0.40095" stroke-miterlimit="10"/>
<path d="M42.0044 62.6365C42.0044 62.6365 44.6051 61.8326 47.8602 62.7573" stroke="black" stroke-width="0.40095" stroke-miterlimit="10"/>
<path d="M65.2217 55.2559C65.2217 55.2559 65.2415 58.6219 66.0444 59.9178" stroke="black" stroke-width="0.40095" stroke-miterlimit="10"/>
<path d="M67.8603 39.8504C67.2425 40.9047 67.2712 41.6532 67.4316 42.8679C67.4449 42.9713 67.4286 43.0764 67.3847 43.171C67.3408 43.2657 67.2711 43.346 67.1835 43.4027C67.096 43.4594 66.9942 43.4902 66.8899 43.4916C66.7856 43.4929 66.6831 43.4648 66.5941 43.4104C63.0301 41.3591 59.6947 42.9817 55.4397 41.9769C53.8775 41.6096 51.9302 40.8503 50.5947 39.6276C50.1516 38.9696 49.9151 38.1943 49.9155 37.4011C49.9155 34.0757 54.4586 31.3789 60.0601 31.3789C63.6508 31.3789 66.8049 32.4867 68.6087 34.1559C68.6087 34.1559 68.6087 34.1559 68.6137 34.1618C69.0662 34.8124 69.3132 35.584 69.3225 36.3765C69.3225 37.5734 68.4355 38.8604 67.8603 39.8504Z" fill="#D7E8F0"/>
<path d="M69.3068 36.3784V36.4625C69.286 37.6278 68.7029 38.7108 68.0109 39.6483C67.5476 40.276 66.9981 40.972 67.1288 41.7412C67.1862 42.0798 67.3753 42.3877 67.4258 42.7312C67.4763 43.0747 67.2921 43.4955 66.9486 43.5133C66.7308 43.5242 66.5447 43.3688 66.3724 43.2351C65.3498 42.4431 64.0212 42.1461 62.7292 42.0946C61.4373 42.0432 60.1473 42.2124 58.8544 42.2491C56.9912 42.3025 55.0983 42.0699 53.3767 41.3581C51.8293 40.7126 50.4186 39.6632 49.49 38.2663C48.5782 36.8892 49.1177 34.8914 50.0899 33.6945C51.0027 32.5718 52.3233 31.8531 53.6786 31.3472C57.3228 29.9859 61.4828 30.0186 65.0775 31.5085C66.1447 31.9461 67.1743 32.5243 67.9762 33.3579C68.7583 34.1707 69.2999 35.2537 69.3068 36.3784Z" stroke="black" stroke-width="0.40095" stroke-miterlimit="10"/>
<path d="M54.3515 37.703C55.1246 37.703 55.7514 37.0764 55.7514 36.3032C55.7514 35.5301 55.1246 34.9033 54.3515 34.9033C53.5784 34.9033 52.9517 35.5301 52.9517 36.3032C52.9517 37.0764 53.5784 37.703 54.3515 37.703Z" fill="white"/>
<path d="M58.8774 37.703C59.6505 37.703 60.2773 37.0764 60.2773 36.3032C60.2773 35.5301 59.6505 34.9033 58.8774 34.9033C58.1042 34.9033 57.4775 35.5301 57.4775 36.3032C57.4775 37.0764 58.1042 37.703 58.8774 37.703Z" fill="white"/>
<path d="M63.4921 37.703C64.2652 37.703 64.892 37.0764 64.892 36.3032C64.892 35.5301 64.2652 34.9033 63.4921 34.9033C62.7191 34.9033 62.0923 35.5301 62.0923 36.3032C62.0923 37.0764 62.7191 37.703 63.4921 37.703Z" fill="white"/>
<g opacity="0.54">
<path opacity="0.54" d="M90.3912 94.9934L89.822 103.21C89.5617 103.706 89.2364 104.166 88.8548 104.576C88.8132 104.561 88.7716 104.545 88.731 104.526C88.6548 104.5 88.5795 104.47 88.5083 104.44C87.3549 103.934 86.4788 102.992 86.2233 101.923C85.9927 100.988 86.2006 99.977 85.7551 99.0979C85.2116 98.0149 83.7335 97.3357 83.5523 96.1141C83.382 94.9706 84.4116 93.9222 84.2453 92.8015C84.0473 91.5343 82.498 90.7829 82.2079 89.5454C82.0267 88.7762 82.1891 87.8931 82.1208 87.1011C82.0454 86.2151 81.8968 85.3369 81.6763 84.4756C83.9701 84.3093 86.3045 85.5735 87.048 87.3842C87.6549 88.8692 87.2896 90.5988 88.236 91.9491C88.7528 92.6807 89.6131 93.2282 90.0586 93.9935C90.1961 94.2323 90.2962 94.4907 90.3556 94.7597C90.3556 94.7785 90.3556 94.7974 90.3625 94.8122C90.3625 94.8429 90.3705 94.8647 90.3744 94.8874C90.3843 94.9558 90.3912 94.9934 90.3912 94.9934Z" fill="#7765C4"/>
<path opacity="0.54" d="M90.3953 94.9874C90.3953 94.9874 90.3884 94.9535 90.3804 94.8877C90.3873 94.9139 90.3922 94.9406 90.3953 94.9675C90.3968 94.9706 90.3975 94.974 90.3975 94.9775C90.3975 94.9809 90.3968 94.9842 90.3953 94.9874Z" fill="#7765C4"/>
</g>
<path d="M97.9739 91.779C97.6769 92.8462 96.0503 93.4947 95.8543 94.5886C95.681 95.5588 96.7522 96.4637 96.575 97.4487C96.3859 98.5051 94.8465 99.0892 94.2812 100.023C93.8208 100.781 94.0357 101.653 93.7981 102.46C93.5228 103.377 92.6101 104.196 91.4062 104.629C91.331 104.656 91.2597 104.682 91.1835 104.704C91.1419 104.716 91.0964 104.731 91.0548 104.742C90.6588 104.414 90.1984 103.837 89.8252 103.215L90.3915 94.9926C90.833 94.6183 91.3379 94.2758 91.6894 93.86C92.0705 93.4115 92.2477 92.9215 92.3606 92.4077H92.3725V92.3512C92.5378 91.5404 92.5526 90.691 92.9338 89.9218C93.707 88.3566 96.1335 87.2656 98.5214 87.4092C98.296 88.1485 98.1419 88.9076 98.061 89.6763C97.9927 90.3564 98.161 91.1187 97.9739 91.779Z" fill="#7765C4"/>
<path d="M92.3763 92.3447V92.4022H92.3643L92.3763 92.3447Z" fill="#7765C4"/>
<path d="M92.3764 92.345L92.3645 92.4014C92.2517 92.9152 92.0745 93.4053 91.6933 93.8538C91.3419 94.2696 90.837 94.6121 90.3954 94.9863C90.3972 94.9812 90.3972 94.9756 90.3954 94.9705C90.3923 94.9438 90.3873 94.9173 90.3806 94.8913C90.3806 94.8685 90.3727 94.8467 90.3687 94.816C90.3687 94.8012 90.3687 94.7824 90.3618 94.7636C90.3024 94.4945 90.2022 94.2361 90.0648 93.9973C89.6193 93.232 88.759 92.6846 88.2422 91.953C88.2422 91.953 88.4758 88.0969 90.4489 86.9238C92.32 85.815 92.3764 91.7035 92.3764 92.345Z" fill="#7765C4"/>
<path d="M92.3763 92.3447V92.4022H92.3643L92.3763 92.3447Z" fill="#7765C4"/>
<path d="M90.3919 94.9713V94.9943C90.3919 94.9943 90.3849 94.9604 90.377 94.8945C90.3836 94.9198 90.3886 94.9454 90.3919 94.9713Z" fill="#7765C4"/>
<path d="M90.2153 94.9934C90.6548 94.6192 91.1657 94.2717 91.5181 93.8569C92.5081 92.6897 92.126 91.1978 92.7606 89.9177C93.5328 88.3545 95.9612 87.2645 98.3481 87.407C98.1214 88.1461 97.967 88.9053 97.8868 89.6742C97.8155 90.3592 97.9858 91.1205 97.7987 91.7838C97.4947 92.8511 95.8741 93.4985 95.6771 94.5925C95.5019 95.5617 96.576 96.4665 96.3988 97.4506C96.2097 98.5079 94.6713 99.092 94.105 100.025C93.6427 100.784 93.8595 101.654 93.6199 102.463C93.3298 103.438 92.32 104.299 91.0043 104.706C90.9627 104.72 90.9172 104.735 90.8746 104.746C90.4786 104.418 90.0183 103.841 89.644 103.217" stroke="black" stroke-width="0.40095" stroke-miterlimit="10"/>
<path d="M96.8904 88.6309C93.3314 92.4612 91.6573 100.537 91.0058 104.706C90.9524 105.058 90.9068 105.38 90.8633 105.67" stroke="black" stroke-width="0.40095" stroke-miterlimit="10"/>
<path d="M97.2194 108.019L95.5869 117.68C95.5481 117.945 95.4169 118.187 95.2164 118.364C95.0159 118.541 94.7593 118.641 94.4919 118.647H85.9304C85.6603 118.641 85.4014 118.539 85.2003 118.358C84.9991 118.178 84.869 117.932 84.8335 117.664L83.3237 108.018L97.2194 108.019Z" stroke="black" stroke-width="0.40095" stroke-miterlimit="10"/>
<path d="M98.7746 106.939C98.76 107.226 98.6376 107.496 98.432 107.696C98.2264 107.896 97.9527 108.011 97.6658 108.018H82.904C82.6203 108.011 82.3495 107.899 82.1446 107.702C81.9398 107.506 81.8158 107.24 81.7971 106.957C81.7348 106.264 82.2476 105.67 82.904 105.67H97.6658C98.3163 105.671 98.8271 106.256 98.7746 106.939Z" stroke="black" stroke-width="0.40095" stroke-miterlimit="10"/>
<path d="M88.6795 104.573C89.3131 103.944 90.0892 102.542 90.4328 101.398C90.7159 100.454 90.2179 99.4833 90.1031 98.5151C89.9249 96.9994 90.6773 95.3698 89.8843 93.9957C89.4418 93.2295 88.5815 92.685 88.0647 91.9514C87.1133 90.6 87.4786 88.8715 86.8707 87.3895C86.1272 85.5768 83.7938 84.3125 81.501 84.4808C81.7201 85.3424 81.8687 86.2206 81.9455 87.1063C82.0138 87.8983 81.8465 88.7814 82.0306 89.5496C82.3207 90.7871 83.877 91.5366 84.068 92.8048C84.2363 93.9254 83.2058 94.9748 83.375 96.1163C83.5572 97.3399 85.0333 98.0161 85.5788 99.1012C86.0223 99.9813 85.8144 100.991 86.0441 101.926C86.3322 103.094 87.3529 104.12 88.6795 104.573Z" stroke="black" stroke-width="0.40095" stroke-miterlimit="10"/>
<path d="M82.9009 85.9004C86.3174 90.3396 87.9251 99.6941 88.5577 104.523C88.6112 104.942 88.6567 105.326 88.6973 105.67" stroke="black" stroke-width="0.40095" stroke-miterlimit="10"/>
<path d="M88.063 91.9515C88.063 91.9515 88.2976 88.0955 90.2697 86.9233C92.2418 85.7511 92.2002 92.3198 92.2002 92.3198" stroke="black" stroke-width="0.40095" stroke-miterlimit="10"/>
<path d="M90.2154 94.993C90.2154 94.993 89.8125 92.7873 90.5194 90.6182" stroke="black" stroke-width="0.40095" stroke-miterlimit="10"/>
</svg>
